<svg xmlns="http://www.w3.org/2000/svg"  viewBox="0 0 64 64" width="64px" height="64px"><path fill="#acb7d0" d="M41.5,61h-23c-1.381,0-2.5-1.119-2.5-2.5v0c0-1.381,1.119-2.5,2.5-2.5h23c1.381,0,2.5,1.119,2.5,2.5 v0C44,59.881,42.881,61,41.5,61z"/><rect width="24" height="3" x="18" y="10" fill="#acb7d0"/><path fill="#acb7d0" d="M47.834,42.595l-0.152-0.105c-1.005-0.689-1.304-2.031-0.772-3.146 c2.791-5.838,2.308-12.949,1.853-16.318H43V18h7.818c1.138,0,2.125,0.808,2.381,1.948c0.119,0.531,2.644,12.157-1.935,21.676 C50.63,42.945,49.025,43.412,47.834,42.595z"/><rect width="24" height="33" x="18" y="13" fill="#e3f2ff"/><polygon fill="#e3f2ff" points="11,14 17,22 17,13"/><rect width="24" height="10" x="18" y="46" fill="#c4939c"/><path fill="#8d6c9f" d="M43,57c-0.553,0-1-0.448-1-1V14h-3c-0.553,0-1-0.448-1-1s0.447-1,1-1h4c0.553,0,1,0.448,1,1v43 C44,56.552,43.553,57,43,57z"/><path fill="#8d6c9f" d="M17,57c-0.553,0-1-0.448-1-1V13c0-0.552,0.447-1,1-1h18c0.553,0,1,0.448,1,1s-0.447,1-1,1H18v42 C18,56.552,17.553,57,17,57z"/><path fill="#8d6c9f" d="M42.5,62h-25c-1.93,0-3.5-1.57-3.5-3.5s1.57-3.5,3.5-3.5H19c0.553,0,1,0.448,1,1s-0.447,1-1,1h-1.5 c-0.827,0-1.5,0.673-1.5,1.5s0.673,1.5,1.5,1.5h25c0.827,0,1.5-0.673,1.5-1.5S43.327,57,42.5,57H41c-0.553,0-1-0.448-1-1 s0.447-1,1-1h1.5c1.93,0,3.5,1.57,3.5,3.5S44.43,62,42.5,62z"/><path fill="#8d6c9f" d="M43,14h-1.714c-0.553,0-1-0.448-1-1s0.447-1,1-1h0.543c-0.413-1.164-1.525-2-2.829-2H21 c-1.304,0-2.416,0.836-2.829,2h0.543c0.553,0,1,0.448,1,1s-0.447,1-1,1H17c-0.553,0-1-0.448-1-1c0-2.757,2.243-5,5-5h18 c2.757,0,5,2.243,5,5C44,13.552,43.553,14,43,14z"/><path fill="#8d6c9f" d="M30,10c-0.553,0-1-0.448-1-1V4c0-0.552,0.447-1,1-1s1,0.448,1,1v5C31,9.552,30.553,10,30,10z"/><path fill="#8d6c9f" d="M34,4h-8c-0.553,0-1-0.448-1-1s0.447-1,1-1h8c0.553,0,1,0.448,1,1S34.553,4,34,4z"/><path fill="#8d6c9f" d="M17.001,23c-0.305,0-0.604-0.138-0.801-0.4l-6-8c-0.21-0.279-0.259-0.648-0.129-0.972 s0.42-0.557,0.765-0.614l6-1c0.546-0.092,1.061,0.277,1.15,0.822c0.091,0.545-0.277,1.06-0.822,1.151l-4.377,0.729L17.8,21.4 c0.332,0.442,0.242,1.069-0.2,1.4C17.42,22.935,17.21,23,17.001,23z"/><path fill="#8d6c9f" d="M49.132,43.999c-0.657,0-1.308-0.198-1.863-0.579l0,0l-0.152-0.104 c-1.402-0.961-1.868-2.813-1.108-4.402c2.438-5.098,2.282-11.213,1.871-14.887H43c-0.553,0-1-0.448-1-1V18c0-0.552,0.447-1,1-1 h7.818c1.615,0,2.996,1.123,3.356,2.729c0.113,0.505,2.722,12.492-2.009,22.329c-0.438,0.908-1.235,1.576-2.189,1.83 C49.698,43.962,49.414,43.999,49.132,43.999z M48.399,41.771c0.318,0.218,0.693,0.283,1.062,0.185 c0.39-0.104,0.719-0.382,0.902-0.765c4.434-9.217,1.968-20.546,1.86-21.024C52.069,19.48,51.491,19,50.818,19H44v3.027h4.763 c0.501,0,0.924,0.37,0.991,0.866c0.504,3.733,0.923,10.892-1.941,16.883c-0.332,0.695-0.149,1.489,0.435,1.89L48.399,41.771z"/><path fill="#8d6c9f" d="M30,47c-0.553,0-1-0.448-1-1V13c0-0.552,0.447-1,1-1s1,0.448,1,1v33C31,46.552,30.553,47,30,47z"/><path fill="#8d6c9f" d="M39,47H21c-0.553,0-1-0.448-1-1s0.447-1,1-1h18c0.553,0,1,0.448,1,1S39.553,47,39,47z"/><path fill="#8d6c9f" d="M33,54c-0.553,0-1,0.447-1,1v2c0,0.553,0.447,1,1,1s1-0.447,1-1v-2C34,54.447,33.553,54,33,54z M38,54c-0.553,0-1,0.447-1,1v2c0,0.553,0.447,1,1,1s1-0.447,1-1v-2C39,54.447,38.553,54,38,54z M27,54c-0.553,0-1,0.447-1,1v2 c0,0.553,0.447,1,1,1s1-0.447,1-1v-2C28,54.447,27.553,54,27,54z M22,54c-0.553,0-1,0.447-1,1v2c0,0.553,0.447,1,1,1s1-0.447,1-1 v-2C23,54.447,22.553,54,22,54z"/></svg>