<svg xmlns="http://www.w3.org/2000/svg"  viewBox="0 0 48 48" width="48px" height="48px"><defs><linearGradient id="5axeGTT4AOFigYPoSx8oca" x1="24" x2="24" y1="29.063" y2="9.063" gradientUnits="userSpaceOnUse"><stop offset=".472" stop-color="#cf6c00"/><stop offset=".533" stop-color="#d67f10"/><stop offset=".667" stop-color="#e3a12e"/><stop offset=".793" stop-color="#edbb43"/><stop offset=".907" stop-color="#f3ca50"/><stop offset="1" stop-color="#f5cf55"/></linearGradient><linearGradient id="5axeGTT4AOFigYPoSx8ocb" x1="24" x2="24" y1="40" y2="14" gradientUnits="userSpaceOnUse"><stop offset="0" stop-color="#ecbe29"/><stop offset=".142" stop-color="#f1c940"/><stop offset=".361" stop-color="#f7d85d"/><stop offset=".578" stop-color="#fbe271"/><stop offset=".793" stop-color="#fee87e"/><stop offset="1" stop-color="#ffea82"/></linearGradient></defs><g data-name="file-folder"><path fill="url(#5axeGTT4AOFigYPoSx8oca)" d="M5,28V11.908a3,3,0,0,1,.5-1.664l.9-1.353A2,2,0,0,1,8.07,8h7.87a2,2,0,0,1,1.668.9l.8,1.208a2,2,0,0,0,1.668.9H41a2,2,0,0,1,2,2V28Z"/><path fill="url(#5axeGTT4AOFigYPoSx8ocb)" d="M41,40H7a2,2,0,0,1-2-2V19a2,2,0,0,1,2-2h8.94a2,2,0,0,0,1.668-.9l.8-1.208a2,2,0,0,1,1.668-.9H41a2,2,0,0,1,2,2V38A2,2,0,0,1,41,40Z"/></g></svg>