<?xml version="1.0" encoding="UTF-8"?>
<svg xmlns="http://www.w3.org/2000/svg" xmlns:xlink="http://www.w3.org/1999/xlink" viewBox="0 0 64 64" width="64px" height="64px">
<g id="surface129823609">
<path style=" stroke:none;fill-rule:nonzero;fill:rgb(73.725492%,74.509805%,80.784315%);fill-opacity:1;" d="M 40.171875 44 L 44.089844 40.082031 L 46.917969 42.910156 L 43 46.828125 Z M 40.171875 44 "/>
<path style=" stroke:none;fill-rule:nonzero;fill:rgb(67.843139%,53.725493%,55.686277%);fill-opacity:1;" d="M 44.914062 45.253906 L 45.261719 44.910156 C 46.824219 43.347656 49.355469 43.347656 50.917969 44.910156 L 61.179688 55.167969 C 62.742188 56.730469 62.742188 59.261719 61.179688 60.824219 L 60.832031 61.171875 C 59.269531 62.734375 56.738281 62.734375 55.175781 61.171875 L 44.914062 50.910156 C 43.351562 49.347656 43.351562 46.816406 44.914062 45.253906 Z M 44.914062 45.253906 "/>
<path style=" stroke:none;fill-rule:nonzero;fill:rgb(70.588237%,54.11765%,56.862748%);fill-opacity:1;" d="M 43.585938 46.585938 C 44.414062 45.757812 45.753906 45.757812 46.582031 46.585938 L 59.503906 59.503906 C 60.332031 60.332031 60.332031 61.675781 59.503906 62.503906 C 58.675781 63.332031 57.332031 63.332031 56.503906 62.503906 L 43.585938 49.585938 C 42.757812 48.757812 42.757812 47.414062 43.585938 46.585938 Z M 43.585938 46.585938 "/>
<path style=" stroke:none;fill-rule:nonzero;fill:rgb(84.705883%,78.431374%,51.764709%);fill-opacity:1;" d="M 25 1 C 11.746094 1 1 11.746094 1 25 C 1 38.253906 11.746094 49 25 49 C 38.253906 49 49 38.253906 49 25 C 49 11.746094 38.253906 1 25 1 Z M 25 1 "/>
<path style=" stroke:none;fill-rule:nonzero;fill:rgb(89.019608%,76.078433%,54.509807%);fill-opacity:1;" d="M 11.140625 38.859375 L 38.859375 11.140625 C 39.695312 10.304688 40.863281 9.878906 42.042969 9.984375 C 43.21875 10.085938 44.292969 10.707031 44.96875 11.679688 C 51.371094 21.199219 50.140625 33.917969 42.03125 42.035156 C 33.921875 50.148438 21.207031 51.390625 11.679688 45 C 10.699219 44.324219 10.070312 43.246094 9.964844 42.058594 C 9.859375 40.871094 10.292969 39.699219 11.140625 38.859375 Z M 11.140625 38.859375 "/>
<path style=" stroke:none;fill-rule:nonzero;fill:rgb(67.450982%,80.392158%,90.196079%);fill-opacity:1;" d="M 25 7 C 15.058594 7 7 15.058594 7 25 C 7 34.941406 15.058594 43 25 43 C 34.941406 43 43 34.941406 43 25 C 43 15.058594 34.941406 7 25 7 Z M 25 7 "/>
<path style=" stroke:none;fill-rule:nonzero;fill:rgb(76.862746%,87.058824%,93.725491%);fill-opacity:1;" d="M 25 18 C 21.132812 18 18 21.132812 18 25 C 18 28.867188 21.132812 32 25 32 C 28.867188 32 32 28.867188 32 25 C 32 21.132812 28.867188 18 25 18 Z M 25 18 "/>
<path style=" stroke:none;fill-rule:nonzero;fill:rgb(89.411765%,89.411765%,89.803922%);fill-opacity:1;" d="M 21 17 C 18.789062 17 17 18.789062 17 21 C 17 23.210938 18.789062 25 21 25 C 23.210938 25 25 23.210938 25 21 C 25 18.789062 23.210938 17 21 17 Z M 29.5 28 C 28.671875 28 28 28.671875 28 29.5 C 28 30.328125 28.671875 31 29.5 31 C 30.328125 31 31 30.328125 31 29.5 C 31 28.671875 30.328125 28 29.5 28 Z M 29.5 28 "/>
<path style=" stroke:none;fill-rule:nonzero;fill:rgb(31.764707%,24.705882%,35.686275%);fill-opacity:1;" d="M 38.441406 11.570312 C 33.007812 6.136719 24.832031 4.511719 17.734375 7.453125 C 10.632812 10.390625 6.003906 17.320312 6.003906 25.003906 C 6.003906 32.691406 10.632812 39.617188 17.734375 42.558594 C 24.832031 45.5 33.007812 43.875 38.441406 38.441406 C 42.03125 34.894531 44.054688 30.054688 44.054688 25.003906 C 44.054688 19.957031 42.03125 15.117188 38.441406 11.570312 Z M 37 37 C 32.144531 41.875 24.824219 43.339844 18.464844 40.710938 C 12.105469 38.082031 7.957031 31.882812 7.957031 25 C 7.957031 18.117188 12.105469 11.917969 18.464844 9.289062 C 24.824219 6.660156 32.144531 8.125 37 13 C 40.203125 16.171875 42.003906 20.492188 42.003906 25 C 42.003906 29.507812 40.203125 33.828125 37 37 Z M 37 37 "/>
<path style=" stroke:none;fill-rule:nonzero;fill:rgb(31.764707%,24.705882%,35.686275%);fill-opacity:1;" d="M 31.199219 14.71875 C 32.03125 15.222656 32.796875 15.824219 33.480469 16.511719 C 33.871094 16.902344 34.503906 16.90625 34.894531 16.515625 C 35.289062 16.125 35.289062 15.492188 34.898438 15.101562 C 34.097656 14.292969 33.203125 13.589844 32.230469 13 C 31.769531 12.808594 31.238281 12.988281 30.984375 13.417969 C 30.734375 13.851562 30.839844 14.402344 31.230469 14.710938 Z M 26.378906 11.070312 C 22.214844 10.652344 18.078125 12.117188 15.109375 15.070312 C 14.824219 15.3125 14.699219 15.699219 14.789062 16.0625 C 14.875 16.429688 15.160156 16.714844 15.527344 16.800781 C 15.890625 16.890625 16.277344 16.765625 16.519531 16.480469 C 19.0625 13.9375 22.609375 12.664062 26.191406 13.019531 C 26.742188 13.074219 27.234375 12.671875 27.289062 12.121094 C 27.34375 11.566406 26.941406 11.074219 26.390625 11.019531 Z M 26.378906 11.070312 "/>
<path style=" stroke:none;fill-rule:nonzero;fill:rgb(31.764707%,24.705882%,35.686275%);fill-opacity:1;" d="M 61.878906 54.460938 L 51.539062 44.121094 C 50.585938 43.171875 49.285156 42.648438 47.941406 42.671875 C 47.941406 42.53125 45.171875 39.761719 45.171875 39.761719 C 52.882812 29.21875 51.183594 14.515625 41.265625 6.011719 C 31.347656 -2.488281 16.554688 -1.917969 7.316406 7.316406 C -1.917969 16.554688 -2.488281 31.347656 6.011719 41.265625 C 14.515625 51.183594 29.21875 52.886719 39.761719 45.171875 C 39.761719 45.171875 42.539062 47.890625 42.671875 47.941406 C 42.800781 47.988281 42.671875 47.941406 42.671875 48.011719 C 42.667969 49.335938 43.191406 50.609375 44.128906 51.550781 L 54.460938 61.878906 C 56.414062 63.832031 59.578125 63.832031 61.53125 61.878906 L 61.871094 61.539062 C 63.820312 59.585938 63.820312 56.421875 61.871094 54.46875 Z M 2 25 C 2 12.296875 12.296875 2 25 2 C 37.703125 2 48 12.296875 48 25 C 48 37.703125 37.703125 48 25 48 C 12.296875 48 2 37.703125 2 25 Z M 44.121094 44.460938 C 43.742188 44.847656 43.433594 45.292969 43.199219 45.78125 L 41.328125 43.910156 C 42.253906 43.109375 43.121094 42.246094 43.921875 41.320312 L 45.800781 43.199219 C 45.3125 43.433594 44.867188 43.742188 44.480469 44.121094 Z M 60.460938 60.121094 L 60.121094 60.460938 C 58.949219 61.628906 57.050781 61.628906 55.878906 60.460938 L 45.539062 50.121094 C 44.371094 48.949219 44.371094 47.050781 45.539062 45.878906 L 45.878906 45.539062 C 47.050781 44.371094 48.949219 44.371094 50.121094 45.539062 L 60.460938 55.878906 C 61.628906 57.050781 61.628906 58.949219 60.460938 60.121094 Z M 60.460938 60.121094 "/>
<path style=" stroke:none;fill-rule:nonzero;fill:rgb(31.764707%,24.705882%,35.686275%);fill-opacity:1;" d="M 34.191406 32.78125 C 33.792969 32.441406 33.203125 32.464844 32.832031 32.832031 C 32.464844 33.203125 32.441406 33.792969 32.78125 34.191406 L 34.191406 35.601562 C 34.585938 35.941406 35.179688 35.917969 35.546875 35.546875 C 35.917969 35.179688 35.941406 34.585938 35.601562 34.191406 Z M 15.808594 32.78125 L 14.398438 34.191406 C 14.113281 34.433594 13.992188 34.816406 14.078125 35.183594 C 14.167969 35.546875 14.453125 35.832031 14.816406 35.921875 C 15.183594 36.007812 15.566406 35.886719 15.808594 35.601562 L 17.21875 34.191406 C 17.558594 33.792969 17.535156 33.203125 17.167969 32.832031 C 16.796875 32.464844 16.207031 32.441406 15.808594 32.78125 Z M 39 24 L 37 24 C 36.449219 24 36 24.449219 36 25 C 36 25.550781 36.449219 26 37 26 L 39 26 C 39.550781 26 40 25.550781 40 25 C 40 24.449219 39.550781 24 39 24 Z M 14 25 C 14 24.449219 13.550781 24 13 24 L 11 24 C 10.449219 24 10 24.449219 10 25 C 10 25.550781 10.449219 26 11 26 L 13 26 C 13.550781 26 14 25.550781 14 25 Z M 25 36 C 24.449219 36 24 36.449219 24 37 L 24 39 C 24 39.550781 24.449219 40 25 40 C 25.550781 40 26 39.550781 26 39 L 26 37 C 26 36.449219 25.550781 36 25 36 Z M 38.28125 29.550781 L 36.441406 28.769531 C 36.109375 28.613281 35.71875 28.652344 35.421875 28.867188 C 35.128906 29.085938 34.972656 29.445312 35.023438 29.808594 C 35.074219 30.171875 35.316406 30.480469 35.660156 30.609375 L 37.5 31.390625 C 37.832031 31.546875 38.222656 31.507812 38.515625 31.292969 C 38.8125 31.074219 38.964844 30.714844 38.917969 30.351562 C 38.867188 29.988281 38.621094 29.679688 38.28125 29.550781 Z M 20.699219 35.128906 C 20.191406 34.914062 19.605469 35.152344 19.390625 35.660156 L 18.609375 37.5 C 18.453125 37.832031 18.492188 38.222656 18.707031 38.515625 C 18.925781 38.8125 19.285156 38.964844 19.648438 38.917969 C 20.011719 38.867188 20.320312 38.621094 20.449219 38.28125 L 21.230469 36.441406 C 21.445312 35.933594 21.207031 35.347656 20.699219 35.128906 Z M 14.800781 29.121094 C 14.59375 28.609375 14.011719 28.363281 13.5 28.570312 L 11.648438 29.320312 C 11.296875 29.4375 11.039062 29.742188 10.980469 30.109375 C 10.921875 30.476562 11.070312 30.847656 11.371094 31.070312 C 11.667969 31.292969 12.066406 31.332031 12.398438 31.171875 L 14.25 30.421875 C 14.761719 30.210938 15.007812 29.628906 14.800781 29.121094 Z M 30.421875 35.75 C 30.191406 35.273438 29.632812 35.054688 29.140625 35.253906 C 28.652344 35.453125 28.402344 36 28.570312 36.5 L 29.320312 38.351562 C 29.546875 38.828125 30.109375 39.042969 30.597656 38.84375 C 31.085938 38.644531 31.339844 38.101562 31.171875 37.601562 Z M 30.421875 35.75 "/>
</g>
</svg>
