<?xml version="1.0" encoding="UTF-8"?>
<svg xmlns="http://www.w3.org/2000/svg" xmlns:xlink="http://www.w3.org/1999/xlink" viewBox="0 0 64 64" width="64px" height="64px">
<g id="surface133229733">
<path style=" stroke:none;fill-rule:nonzero;fill:rgb(87.843138%,32.156864%,47.843137%);fill-opacity:1;" d="M 42.820312 45.109375 C 38.214844 48.6875 32.191406 49.878906 26.574219 48.332031 C 20.953125 46.78125 16.390625 42.671875 14.269531 37.238281 C 11.324219 39.101562 8.554688 41.230469 6 43.601562 C 10.019531 51.585938 17.609375 57.171875 26.429688 58.636719 C 35.25 60.097656 44.238281 57.261719 50.621094 51 Z M 42.820312 45.109375 "/>
<path style=" stroke:none;fill-rule:nonzero;fill:rgb(87.843138%,32.156864%,47.843137%);fill-opacity:1;" d="M 14.269531 37.238281 C 12.183594 31.910156 12.675781 25.917969 15.601562 21 C 12.816406 19.363281 10.195312 17.457031 7.78125 15.308594 C 2.105469 23.722656 1.421875 34.542969 6 43.601562 C 10 41 10 40 14.269531 37.238281 Z M 14.269531 37.238281 "/>
<path style=" stroke:none;fill-rule:nonzero;fill:rgb(87.843138%,32.156864%,47.843137%);fill-opacity:1;" d="M 15.230469 21.679688 C 17.769531 16.980469 22.21875 13.613281 27.433594 12.445312 C 32.644531 11.273438 38.105469 12.417969 42.410156 15.578125 L 48.699219 9.300781 C 42.609375 4.324219 34.703125 2.140625 26.921875 3.28125 C 19.140625 4.421875 12.195312 8.785156 7.789062 15.300781 C 10 17 12 18 15.230469 21.679688 Z M 15.230469 21.679688 "/>
<path style=" stroke:none;fill-rule:nonzero;fill:rgb(87.843138%,32.156864%,47.843137%);fill-opacity:1;" d="M 58 36 L 56 43 L 51 52 L 44 46 L 47 41 L 47.441406 36 L 32 36 L 32 27 L 58 27 Z M 58 36 "/>
<path style=" stroke:none;fill-rule:nonzero;fill:rgb(29.019609%,23.137255%,32.549021%);fill-opacity:1;" d="M 57 26.199219 L 33.351562 26.199219 C 32.246094 26.199219 31.351562 27.09375 31.351562 28.199219 L 31.351562 35.421875 C 31.351562 36.523438 32.246094 37.421875 33.351562 37.421875 L 46.949219 37.421875 C 45.148438 44.660156 39.628906 48.699219 31.210938 48.699219 C 21.339844 48.785156 13.261719 40.871094 13.140625 31 C 13.175781 26.246094 15.101562 21.699219 18.492188 18.367188 C 21.878906 15.03125 26.457031 13.179688 31.210938 13.21875 C 34.9375 13.214844 38.574219 14.347656 41.640625 16.46875 C 41.980469 16.710938 42.390625 16.84375 42.808594 16.839844 C 43.375 16.835938 43.914062 16.59375 44.289062 16.171875 L 49.148438 10.691406 C 49.523438 10.269531 49.707031 9.714844 49.648438 9.152344 C 49.589844 8.59375 49.300781 8.085938 48.851562 7.75 C 43.730469 4.007812 37.550781 1.992188 31.210938 2 C 14.949219 2 1.71875 15 1.71875 31 C 1.71875 47 14.949219 60 31.210938 60 C 47.828125 59.921875 59 48.621094 59 31.808594 L 59 28.199219 C 59 27.09375 58.105469 26.199219 57 26.199219 Z M 31.210938 4 C 37.117188 4.003906 42.875 5.878906 47.648438 9.359375 L 42.78125 14.828125 C 33.769531 8.574219 21.410156 10.636719 14.921875 19.480469 L 9 15.070312 C 14.238281 8.074219 22.472656 3.972656 31.210938 4 Z M 7.890625 16.710938 L 13.820312 21.148438 C 10.902344 26.089844 10.34375 32.074219 12.300781 37.46875 L 6.171875 42.070312 C 2.371094 33.878906 3.019531 24.3125 7.890625 16.710938 Z M 7.089844 43.878906 L 13.089844 39.378906 C 16.457031 46.316406 23.5 50.714844 31.210938 50.699219 C 35.515625 50.851562 39.746094 49.539062 43.210938 46.980469 L 48.78125 51.761719 C 44.339844 55.691406 38.308594 57.921875 31.199219 57.921875 C 21.214844 57.949219 11.992188 52.578125 7.089844 43.878906 Z M 57 31.808594 C 57 39.421875 54.53125 45.808594 50.230469 50.359375 L 44.71875 45.640625 C 46.777344 43.480469 48.21875 40.808594 48.890625 37.898438 C 49.039062 37.304688 48.902344 36.671875 48.523438 36.1875 C 48.144531 35.703125 47.566406 35.421875 46.949219 35.421875 L 33.351562 35.421875 L 33.351562 28.199219 L 57 28.199219 Z M 57 31.808594 "/>
<path style=" stroke:none;fill-rule:nonzero;fill:rgb(29.019609%,23.137255%,32.549021%);fill-opacity:1;" d="M 16 31 C 16 31.550781 16.449219 32 17 32 L 19 32 C 19.550781 32 20 31.550781 20 31 C 20 30.449219 19.550781 30 19 30 L 17 30 C 16.449219 30 16 30.449219 16 31 Z M 18 37.238281 C 18.125 37.242188 18.253906 37.214844 18.371094 37.171875 L 20.21875 36.421875 C 20.695312 36.191406 20.914062 35.632812 20.714844 35.140625 C 20.515625 34.652344 19.972656 34.402344 19.46875 34.570312 L 17.621094 35.320312 C 17.183594 35.503906 16.9375 35.96875 17.03125 36.433594 C 17.121094 36.898438 17.527344 37.234375 18 37.238281 Z M 20.929688 41.730469 C 21.1875 41.730469 21.433594 41.628906 21.621094 41.449219 L 23.058594 40.058594 C 23.457031 39.675781 23.46875 39.042969 23.085938 38.644531 C 22.699219 38.246094 22.066406 38.234375 21.671875 38.621094 L 20.238281 40 C 19.945312 40.28125 19.855469 40.714844 20.007812 41.09375 C 20.15625 41.46875 20.523438 41.71875 20.929688 41.71875 Z M 26.53125 41 C 26.289062 40.890625 26.011719 40.886719 25.765625 40.980469 C 25.515625 41.078125 25.316406 41.265625 25.210938 41.511719 L 24.398438 43.339844 C 24.292969 43.582031 24.285156 43.859375 24.382812 44.105469 C 24.476562 44.351562 24.667969 44.550781 24.910156 44.660156 C 25.039062 44.71875 25.179688 44.75 25.320312 44.75 C 25.714844 44.75 26.070312 44.519531 26.230469 44.160156 L 27 42.371094 C 27.125 42.128906 27.148438 41.84375 27.058594 41.585938 C 26.96875 41.324219 26.777344 41.113281 26.53125 41 Z M 19.5 27.429688 C 19.617188 27.476562 19.742188 27.5 19.871094 27.5 C 20.351562 27.5 20.765625 27.160156 20.855469 26.6875 C 20.945312 26.214844 20.6875 25.746094 20.238281 25.570312 L 18.390625 24.820312 C 17.890625 24.652344 17.34375 24.902344 17.144531 25.390625 C 16.945312 25.882812 17.164062 26.441406 17.640625 26.671875 Z M 23.058594 21.949219 L 21.621094 20.558594 C 21.214844 20.226562 20.625 20.261719 20.261719 20.640625 C 19.898438 21.015625 19.890625 21.609375 20.238281 22 L 21.679688 23.390625 C 22.078125 23.773438 22.710938 23.761719 23.09375 23.363281 C 23.480469 22.96875 23.46875 22.332031 23.070312 21.949219 Z M 27 19.628906 L 26.191406 17.800781 C 25.964844 17.292969 25.375 17.066406 24.871094 17.289062 C 24.363281 17.515625 24.136719 18.105469 24.359375 18.609375 L 25.171875 20.441406 C 25.332031 20.796875 25.6875 21.027344 26.078125 21.03125 C 26.222656 21.03125 26.359375 21 26.488281 20.941406 C 26.988281 20.714844 27.21875 20.132812 27 19.628906 Z M 27 19.628906 "/>
</g>
</svg>
