<svg xmlns="http://www.w3.org/2000/svg"  viewBox="0 0 64 64" width="64px" height="64px"><path fill="#8d6c9f" d="M52.177,44.164c-0.006-0.552-0.458-0.995-1.011-0.989l-2,0.021c-0.552,0.006-0.995,0.458-0.989,1.011 c0.006,0.552,0.458,0.995,1.011,0.989l2-0.021C51.74,45.169,52.183,44.716,52.177,44.164z M51.978,49.374 c0.06-0.549-0.337-1.043-0.886-1.102l-1.988-0.217c-0.549-0.06-1.043,0.337-1.102,0.886s0.337,1.043,0.886,1.102l1.988,0.217 C51.425,50.32,51.918,49.923,51.978,49.374z M50.138,54.805c0.226-0.504,0-1.096-0.504-1.321l-1.825-0.818 c-0.504-0.226-1.096,0-1.321,0.504s0,1.096,0.504,1.321l1.825,0.818C49.321,55.535,49.913,55.309,50.138,54.805z M46.949,59.537 c0.379-0.402,0.36-1.035-0.042-1.414l-1.455-1.372c-0.402-0.379-1.035-0.36-1.414,0.042s-0.36,1.035,0.042,1.414l1.455,1.372 C45.937,59.957,46.57,59.938,46.949,59.537z"/><path fill="#85cbf8" d="M20,59c-0.553,0-1-0.448-1-1v-4c0-0.552,0.447-1,1-1h8c3.859,0,7-3.14,7-7V7c0-0.552,0.447-1,1-1h8 c0.553,0,1,0.448,1,1v38.833c0,7.113-5.754,12.987-12.854,13.156C32.099,58.996,32.05,59,32,59H20z"/><path fill="#9fddff" d="M34.917,6.921v42.075c2.903-0.023,5.25-2.379,5.25-5.287v-31.5 C40.167,9.3,37.819,6.944,34.917,6.921z"/><path fill="#8d6c9f" d="M40,16c-0.552,0-1-0.448-1-1v-4c0-0.552,0.448-1,1-1s1,0.448,1,1v4C41,15.552,40.552,16,40,16z M40,28c-0.552,0-1-0.448-1-1v-8c0-0.552,0.448-1,1-1s1,0.448,1,1v8C41,27.552,40.552,28,40,28z"/><path fill="#8d6c9f" d="M44,7v25v10v3.833c0,6.663-5.358,12.068-12,12.158V58h-0.167H26h-6v-4h6h2c4.418,0,8-3.582,8-8V32 v-4V7H44 M44,5h-8c-1.105,0-2,0.895-2,2v21v4v14c0,3.308-2.692,6-6,6h-2h-6c-1.105,0-2,0.895-2,2v4c0,1.105,0.895,2,2,2h6h5.833H32 c0.077,0,0.152-0.004,0.227-0.013C39.84,59.777,46,53.469,46,45.833V42V32V7C46,5.895,45.105,5,44,5L44,5z"/></svg>