<?xml version="1.0" encoding="UTF-8"?>
<svg xmlns="http://www.w3.org/2000/svg" xmlns:xlink="http://www.w3.org/1999/xlink" viewBox="0 0 64 64" width="64px" height="64px">
<g id="surface136022354">
<path style=" stroke:none;fill-rule:nonzero;fill:rgb(53.333336%,54.509807%,90.196079%);fill-opacity:1;" d="M 58.25 13.25 L 58.25 57 C 58.25 59.070312 56.570312 60.75 54.5 60.75 L 19.5 60.75 C 17.429688 60.75 15.75 59.070312 15.75 57 C 15.75 55.402344 15.75 9.574219 15.75 7 C 15.75 4.929688 17.429688 3.25 19.5 3.25 L 48.25 3.25 L 50.75 10.75 Z M 58.25 13.25 "/>
<path style=" stroke:none;fill-rule:nonzero;fill:rgb(87.843138%,66.274512%,23.137255%);fill-opacity:1;" d="M 15.75 23.25 L 15.75 30.75 L 9.5 30.75 C 7.429688 30.75 5.75 29.070312 5.75 27 C 5.75 24.929688 7.429688 23.25 9.5 23.25 Z M 15.75 23.25 "/>
<path style=" stroke:none;fill-rule:nonzero;fill:rgb(88.627452%,83.137256%,56.470591%);fill-opacity:1;" d="M 52 33.875 L 52 48.875 C 52 50.601562 50.601562 52 48.875 52 C 47.648438 52 13.210938 52 11.292969 52 C 8.230469 52 5.75 49.519531 5.75 46.457031 L 5.75 27 C 5.75 29.070312 7.429688 30.75 9.5 30.75 C 11.390625 30.75 46.96875 30.75 48.875 30.75 C 50.601562 30.75 52 32.148438 52 33.875 Z M 52 33.875 "/>
<path style=" stroke:none;fill-rule:nonzero;fill:rgb(63.137257%,56.862748%,76.47059%);fill-opacity:1;" d="M 58.25 13.25 L 48.25 13.25 L 48.25 3.25 Z M 58.25 13.25 "/>
<path style=" stroke:none;fill-rule:nonzero;fill:rgb(34.117648%,30.19608%,41.960785%);fill-opacity:1;" d="M 59.132812 12.367188 L 49.132812 2.367188 C 48.902344 2.132812 48.582031 2 48.25 2 L 19.5 2 C 16.742188 2 14.5 4.242188 14.5 7 L 14.5 22 L 9.5 22 C 6.742188 22 4.5 24.242188 4.5 27 L 4.5 46.457031 C 4.5 50.203125 7.546875 53.25 11.292969 53.25 L 14.5 53.25 L 14.5 57 C 14.5 59.757812 16.742188 62 19.5 62 L 54.5 62 C 57.257812 62 59.5 59.757812 59.5 57 L 59.5 13.25 C 59.5 12.917969 59.367188 12.597656 59.132812 12.367188 Z M 49.5 6.269531 L 55.230469 12 L 49.5 12 Z M 9.5 24.5 L 14.5 24.5 L 14.5 29.5 L 9.5 29.5 C 8.121094 29.5 7 28.378906 7 27 C 7 25.621094 8.121094 24.5 9.5 24.5 Z M 11.292969 50.75 C 8.925781 50.75 7 48.824219 7 46.457031 L 7 31.332031 C 7.753906 31.765625 8.609375 32 9.5 32 C 11.390625 32 46.96875 32 48.875 32 C 49.910156 32 50.75 32.839844 50.75 33.875 L 50.75 48.875 C 50.75 49.910156 49.910156 50.75 48.875 50.75 Z M 57 57 C 57 58.378906 55.878906 59.5 54.5 59.5 L 19.5 59.5 C 18.121094 59.5 17 58.378906 17 57 L 17 53.25 L 48.875 53.25 C 51.289062 53.25 53.25 51.289062 53.25 48.875 L 53.25 33.875 C 53.25 31.460938 51.289062 29.5 48.875 29.5 L 17 29.5 L 17 7 C 17 5.621094 18.121094 4.5 19.5 4.5 L 47 4.5 L 47 13.25 C 47 13.941406 47.558594 14.5 48.25 14.5 L 57 14.5 Z M 57 57 "/>
<path style=" stroke:none;fill-rule:nonzero;fill:rgb(34.117648%,30.19608%,41.960785%);fill-opacity:1;" d="M 22 13.25 L 32 13.25 C 32.691406 13.25 33.25 12.691406 33.25 12 C 33.25 11.308594 32.691406 10.75 32 10.75 L 22 10.75 C 21.308594 10.75 20.75 11.308594 20.75 12 C 20.75 12.691406 21.308594 13.25 22 13.25 Z M 22 13.25 "/>
<path style=" stroke:none;fill-rule:nonzero;fill:rgb(34.117648%,30.19608%,41.960785%);fill-opacity:1;" d="M 42 15.75 L 22 15.75 C 21.308594 15.75 20.75 16.308594 20.75 17 C 20.75 17.691406 21.308594 18.25 22 18.25 L 42 18.25 C 42.691406 18.25 43.25 17.691406 43.25 17 C 43.25 16.308594 42.691406 15.75 42 15.75 Z M 42 15.75 "/>
<path style=" stroke:none;fill-rule:nonzero;fill:rgb(34.117648%,30.19608%,41.960785%);fill-opacity:1;" d="M 42 20.75 L 22 20.75 C 21.308594 20.75 20.75 21.308594 20.75 22 C 20.75 22.691406 21.308594 23.25 22 23.25 L 42 23.25 C 42.691406 23.25 43.25 22.691406 43.25 22 C 43.25 21.308594 42.691406 20.75 42 20.75 Z M 42 20.75 "/>
<path style=" stroke:none;fill-rule:nonzero;fill:rgb(34.117648%,30.19608%,41.960785%);fill-opacity:1;" d="M 40.125 34.5 L 35.75 34.5 C 35.058594 34.5 34.5 35.058594 34.5 35.75 L 34.5 40.75 C 34.5 41.855469 34.5 45.320312 34.5 47 C 34.5 47.691406 35.058594 48.25 35.75 48.25 C 36.441406 48.25 37 47.691406 37 47 L 37 43.25 L 40.125 43.25 C 42.539062 43.25 44.5 41.285156 44.5 38.875 C 44.5 36.460938 42.539062 34.5 40.125 34.5 Z M 40.125 40.75 L 37 40.75 L 37 37 L 40.125 37 C 41.160156 37 42 37.839844 42 38.875 C 42 39.910156 41.160156 40.75 40.125 40.75 Z M 40.125 40.75 "/>
<path style=" stroke:none;fill-rule:nonzero;fill:rgb(34.117648%,30.19608%,41.960785%);fill-opacity:1;" d="M 27 37 L 30.75 37 C 31.441406 37 32 36.441406 32 35.75 C 32 35.058594 31.441406 34.5 30.75 34.5 L 27 34.5 C 24.761719 34.5 22.9375 36.320312 22.9375 38.5625 C 22.9375 40.800781 24.761719 42.625 27 42.625 L 27.9375 42.625 C 28.800781 42.625 29.5 43.324219 29.5 44.1875 C 29.5 45.046875 28.800781 45.75 27.9375 45.75 L 24.1875 45.75 C 23.496094 45.75 22.9375 46.308594 22.9375 47 C 22.9375 47.691406 23.496094 48.25 24.1875 48.25 L 27.9375 48.25 C 30.175781 48.25 32 46.425781 32 44.1875 C 32 41.945312 30.175781 40.125 27.9375 40.125 L 27 40.125 C 26.136719 40.125 25.4375 39.421875 25.4375 38.5625 C 25.4375 37.699219 26.136719 37 27 37 Z M 27 37 "/>
<path style=" stroke:none;fill-rule:nonzero;fill:rgb(34.117648%,30.19608%,41.960785%);fill-opacity:1;" d="M 19.5 34.5 C 18.808594 34.5 18.25 35.058594 18.25 35.75 L 18.25 43.875 C 18.25 44.910156 17.410156 45.75 16.375 45.75 C 15.339844 45.75 14.5 44.910156 14.5 43.875 L 14.5 43.25 C 14.5 42.558594 13.941406 42 13.25 42 C 12.558594 42 12 42.558594 12 43.25 L 12 43.875 C 12 46.285156 13.960938 48.25 16.375 48.25 C 18.789062 48.25 20.75 46.285156 20.75 43.875 L 20.75 35.75 C 20.75 35.058594 20.191406 34.5 19.5 34.5 Z M 19.5 34.5 "/>
</g>
</svg>
