<svg xmlns="http://www.w3.org/2000/svg"  viewBox="0 0 64 64" width="64px" height="64px"><path fill="#acb7d0" d="M51.856,27.079C50.773,29.535,47,32,43.571,30.935C43.022,30.764,45,29,45.551,27.545L51.856,27.079 z"/><path fill="#c2cde7" d="M43.208,8.431c-10.166-1.054-13.432,2.161-14.901,2.346c-0.454,0.056-0.95-0.091-1.398-0.227 C25.392,10.082,16,3.199,8.972,10.922c-0.217,0.238,2.132,0.706,4.265,2.559c2.322,2.018,4.059,5.806,3.412,6.825 C11,29.199,11,38.199,10.919,44.143c-0.007,0.483-0.283,0.832-0.647,1.092C9.714,45.632,3,48.485,3,55.587 c0,0.644,0.406,1.135,0.676,1.135c0.685,0,2.466-2.457,3.723-2.934c1.465-0.558,1.837-0.171,3.123-0.26 c1.318-0.094,1.88-0.704,2.305-1.081c0.278,0.283,1.465,1.001,1.928,0.987c1.554-0.047,2.726-0.194,3.297-0.231 c1.413-0.094,2.079,0.992,2.359,1.181c0.732,0.487,0.878,0.487,0.977-0.141c0.59-3.733-2.197-6.804-4.791-8.524 C16.121,45.401,20.667,33.199,31,31.199c-1.216,0.235-5.205,7-4,7c10.237,0,14.215-8.543,14.716-9.063 c0.784-0.818,1.73-1.229,2.835-1.432c1.776-0.33,6.043-0.444,11.415-0.444c5.082,0,5.034-4.857,5.034-5.375 C61,19.453,57.074,9.868,43.208,8.431z"/><path fill="#e2e9f7" d="M16.288,45.217c-1.054,0-1.936-0.824-1.995-1.889C13.963,37.379,18.307,28.243,29,26.555 c1.081-0.169,1.876,0.638,2.287,1.664C32,30,30.714,31.334,29.623,31.506c-3.86,0.609-6.663,2.502-8.517,4.785 C19.051,38.823,16,43,16.401,45.214C16.408,45.252,16.325,45.217,16.288,45.217z"/><path fill="#acb7d0" d="M48.5 16.199A3.5 1.5 0 1 0 48.5 19.199A3.5 1.5 0 1 0 48.5 16.199Z"/><path fill="#8d6c9f" d="M48.5 20.199c-2.649 0-4.5-1.028-4.5-2.5s1.851-2.5 4.5-2.5 4.5 1.028 4.5 2.5S51.149 20.199 48.5 20.199zM46.141 17.699c.335.206 1.12.5 2.359.5s2.024-.294 2.359-.5c-.335-.206-1.12-.5-2.359-.5S46.476 17.493 46.141 17.699zM51.034 17.841h.01H51.034zM14 38.199c0-.553.448-1 1-1h2c.552 0 1 .447 1 1s-.448 1-1 1h-2C14.448 39.199 14 38.752 14 38.199zM15.658 32.757c.291-.47.907-.615 1.376-.325l1.701 1.051c.47.29.616.906.325 1.376-.291.47-.907.615-1.376.325l-1.701-1.051C15.513 33.843 15.367 33.227 15.658 32.757zM19.686 28.466c.444-.329 1.07-.234 1.399.21l1.189 1.608c.328.444.235 1.07-.21 1.399-.444.329-1.07.234-1.399-.21l-1.189-1.608C19.148 29.42 19.242 28.794 19.686 28.466zM25.133 25.735c.53-.158 1.086.144 1.244.674l.57 1.917c.157.529-.144 1.086-.674 1.244s-1.086-.144-1.244-.674l-.57-1.917C24.302 26.449 24.603 25.893 25.133 25.735zM31.283 25.219c.547.078.927.585.849 1.131l-.283 1.98c-.078.547-.584.927-1.131.849-.547-.078-.927-.585-.849-1.131l.283-1.98C30.23 25.521 30.736 25.141 31.283 25.219z"/><g><path fill="#e2e9f7" d="M59,26.359C59,24.504,57.496,23,55.641,23H49v0.01c-3.098,0.009-5.796,0.02-6,0.025l-1,4.853 C42.727,27.244,59,27,59,27V26.359z"/></g><g><path fill="#8d6c9f" d="M39.328,33.266c-0.23,0-0.462-0.079-0.651-0.241c-0.419-0.36-0.467-0.991-0.107-1.41 c2.615-3.05,2.81-5.859,2.785-8.475c-0.005-0.552,0.438-1.004,0.99-1.009c0.004,0,0.007,0,0.01,0c0.548,0,0.995,0.441,1,0.991 c0.027,2.864-0.201,6.219-3.268,9.795C39.89,33.147,39.609,33.266,39.328,33.266z"/></g><path fill="#8d6c9f" d="M43.312,7.237c-8.14-0.844-12.008,0.958-14.089,1.925c-0.134,0.062-0.267,0.123-0.395,0.181 c-0.121,0.049-0.254,0.104-0.403,0.169c-0.098,0.037-0.185,0.066-0.24,0.073c-0.255,0.033-0.677-0.097-0.981-0.19 c-0.132-0.041-0.57-0.271-0.957-0.475c-3.142-1.652-11.484-6.045-18.014,1.13c-0.218,0.238-0.319,0.608-0.252,0.924 c0.126,0.588,0.587,0.788,1.283,1.091c0.785,0.342,2.1,0.914,3.317,1.972c2.129,1.85,3.373,4.953,3.225,5.534 c-5.683,8.945-5.803,17.994-5.882,23.981L9.919,43.93c0,0.036-0.002,0.131-0.213,0.282c-0.052,0.034-0.143,0.082-0.264,0.147 C4.504,47.053,2,50.764,2,55.388c0,1.137,0.783,2.135,1.676,2.135c0.74,0,1.355-0.603,2.287-1.515 c0.565-0.554,1.341-1.313,1.792-1.485c0.747-0.284,1.067-0.259,1.596-0.217c0.322,0.025,0.723,0.057,1.243,0.021 c1.09-0.078,1.799-0.449,2.285-0.81c0.582,0.364,1.333,0.751,1.907,0.717c1.145-0.035,2.101-0.123,2.732-0.182 c0.243-0.022,0.445-0.041,0.601-0.052c0.617-0.034,0.976,0.279,1.354,0.67c0.121,0.126,0.236,0.245,0.385,0.345 c0.45,0.301,1.068,0.711,1.732,0.418c0.637-0.28,0.742-0.95,0.786-1.235c0.728-4.591-2.962-7.881-4.733-9.171 c0.559-2.013,3.989-9.004,10.226-11.954c-1.18,1.801-2.429,4.167-1.979,5.204C26.084,38.723,26.509,39,27,39 c6.372,0,11.501-3.046,15.245-9.054c0.104-0.167,0.179-0.292,0.192-0.317c0.321-0.335,0.69-0.586,1.12-0.781 c-0.045,0.058-0.091,0.12-0.134,0.176c-0.67,0.871-1.112,1.446-0.895,2.133c0.112,0.353,0.384,0.62,0.745,0.732 c0.653,0.203,1.322,0.296,1.989,0.296c2.958,0,5.858-1.841,7.177-4.104c1.08-0.013,2.243-0.021,3.525-0.021 c3.146,0,4.619-1.64,5.303-3.015c0.479-0.966,0.732-2.124,0.731-3.359C62,18.479,57.399,8.698,43.312,7.237z M45.054,30.185 c0.383-0.499,0.827-1.083,1.153-1.686l3.587-0.265C48.627,29.356,46.853,30.255,45.054,30.185z M59.477,24.156 c-0.636,1.282-1.784,1.905-3.511,1.905c-1.905,0-3.81,0.013-5.715,0.06c-1.433,0.035-2.869,0.082-4.298,0.205 c-0.529,0.046-1.06,0.099-1.583,0.196c-1.427,0.262-2.499,0.81-3.374,1.722c-0.132,0.136-0.237,0.306-0.449,0.646 c-3.152,5.06-7.37,7.775-12.546,8.083c0.522-1.246,1.854-3.538,2.915-4.674c0.375-0.402,0.437-0.99,0.152-1.462 c-0.288-0.478-0.842-0.703-1.381-0.556c-9.039,2.438-13.715,12.445-14.094,14.783c-0.12,0.74,0.18,1.11,0.451,1.291 c1.071,0.71,4.309,3.133,4.42,6.503c-0.509-0.433-1.328-0.924-2.478-0.85c-0.169,0.011-0.388,0.031-0.652,0.056 c-0.645,0.06-1.526,0.141-2.537,0.178c-0.253-0.046-1.055-0.502-1.257-0.692c-0.373-0.379-0.979-0.399-1.376-0.047l-0.118,0.107 c-0.377,0.341-0.732,0.664-1.594,0.726c-0.372,0.026-0.65,0.004-0.945-0.019c-0.637-0.05-1.297-0.101-2.464,0.342 c-0.842,0.32-1.675,1.136-2.48,1.925c-0.165,0.162-0.369,0.361-0.56,0.539c0.099-3.712,2.25-6.74,6.396-9.003 c0.223-0.121,0.378-0.211,0.454-0.265c0.866-0.62,1.057-1.371,1.064-1.892l0.005-0.379C12,37.817,12.115,29.11,17.493,20.643 c0.023-0.037,0.036-0.081,0.056-0.12c0.009-0.012,0.025-0.016,0.034-0.029c1.319-1.853,2.935-3.379,4.803-4.536 c0.47-0.291,0.614-0.907,0.324-1.376c-0.291-0.47-0.907-0.614-1.377-0.324c-1.475,0.913-2.8,2.041-3.974,3.344 c-0.686-1.845-2.122-3.908-3.465-5.075c-1.164-1.01-2.391-1.644-3.26-2.042c5.334-4.712,11.821-1.3,14.681,0.205 c0.142,0.074,0.27,0.142,0.391,0.204c-0.483,0.277-0.945,0.56-1.332,0.831c-0.452,0.317-0.562,0.941-0.244,1.393 c0.194,0.277,0.504,0.426,0.819,0.426c0.198,0,0.398-0.059,0.573-0.181c0.993-0.697,2.614-1.536,3.645-1.992 c0.269-0.103,0.56-0.238,0.9-0.395c1.905-0.886,5.457-2.537,13.038-1.75C55.954,10.559,60,19.325,60,21.701 C60.001,22.603,59.814,23.475,59.477,24.156z"/></svg>