<?xml version="1.0" encoding="UTF-8"?>
<svg xmlns="http://www.w3.org/2000/svg" xmlns:xlink="http://www.w3.org/1999/xlink" viewBox="0 0 64 64" width="64px" height="64px">
<g id="surface129142349">
<path style=" stroke:none;fill-rule:nonzero;fill:rgb(27.058825%,24.313726%,25.098041%);fill-opacity:1;" d="M 51 58 L 13 58 C 9.132812 58 6 54.867188 6 51 L 6 13 C 6 9.132812 9.132812 6 13 6 L 51 6 C 54.867188 6 58 9.132812 58 13 L 58 51 C 58 54.867188 54.867188 58 51 58 Z M 51 58 "/>
<path style=" stroke:none;fill-rule:nonzero;fill:rgb(16.078432%,16.078432%,16.078432%);fill-opacity:1;" d="M 13 6 C 9.140625 6 6 9.140625 6 13 L 6 51 C 6 54.859375 9.140625 58 13 58 L 51 58 C 54.859375 58 58 54.859375 58 51 L 58 13 C 58 9.140625 54.859375 6 51 6 Z M 13 8 L 51 8 C 53.757812 8 56 10.242188 56 13 L 56 51 C 56 53.757812 53.757812 56 51 56 L 13 56 C 10.242188 56 8 53.757812 8 51 L 8 13 C 8 10.242188 10.242188 8 13 8 Z M 12 12 C 11.445312 12 11 12.445312 11 13 L 11 15 C 11 15.554688 11.445312 16 12 16 C 12.554688 16 13 15.554688 13 15 L 13 13 C 13 12.445312 12.554688 12 12 12 Z M 17 12 C 16.445312 12 16 12.445312 16 13 L 16 15 C 16 15.554688 16.445312 16 17 16 C 17.554688 16 18 15.554688 18 15 L 18 13 C 18 12.445312 17.554688 12 17 12 Z M 22 12 C 21.445312 12 21 12.445312 21 13 L 21 15 C 21 15.554688 21.445312 16 22 16 C 22.554688 16 23 15.554688 23 15 L 23 13 C 23 12.445312 22.554688 12 22 12 Z M 27 12 C 26.445312 12 26 12.445312 26 13 L 26 15 C 26 15.554688 26.445312 16 27 16 C 27.554688 16 28 15.554688 28 15 L 28 13 C 28 12.445312 27.554688 12 27 12 Z M 32 12 C 31.445312 12 31 12.445312 31 13 L 31 15 C 31 15.554688 31.445312 16 32 16 C 32.554688 16 33 15.554688 33 15 L 33 13 C 33 12.445312 32.554688 12 32 12 Z M 37 12 C 36.445312 12 36 12.445312 36 13 L 36 15 C 36 15.554688 36.445312 16 37 16 C 37.554688 16 38 15.554688 38 15 L 38 13 C 38 12.445312 37.554688 12 37 12 Z M 42 12 C 41.445312 12 41 12.445312 41 13 L 41 15 C 41 15.554688 41.445312 16 42 16 C 42.554688 16 43 15.554688 43 15 L 43 13 C 43 12.445312 42.554688 12 42 12 Z M 47 12 C 46.445312 12 46 12.445312 46 13 L 46 15 C 46 15.554688 46.445312 16 47 16 C 47.554688 16 48 15.554688 48 15 L 48 13 C 48 12.445312 47.554688 12 47 12 Z M 52 12 C 51.445312 12 51 12.445312 51 13 L 51 15 C 51 15.554688 51.445312 16 52 16 C 52.554688 16 53 15.554688 53 15 L 53 13 C 53 12.445312 52.554688 12 52 12 Z M 52 12 "/>
<path style="fill-rule:nonzero;fill:rgb(100%,97.254902%,93.333334%);fill-opacity:1;stroke-width:2;stroke-linecap:butt;stroke-linejoin:round;stroke:rgb(16.078432%,16.078432%,16.078432%);stroke-opacity:1;stroke-miterlimit:10;" d="M 35.015625 21.035156 L 35.015625 35.035156 L 42.015625 52.035156 L 42.015625 21.035156 Z M 21.984375 52 C 24.292969 51.527344 26.628906 51.097656 29.019531 50.945312 L 29.019531 38.035156 L 21.984375 21 Z M 22.015625 21.035156 L 34.542969 50.90625 C 37.082031 51.046875 39.5625 51.402344 41.976562 51.9375 L 29.015625 21.035156 Z M 22.015625 21.035156 "/>
</g>
</svg>
