<?xml version="1.0" encoding="UTF-8"?>
<svg xmlns="http://www.w3.org/2000/svg" xmlns:xlink="http://www.w3.org/1999/xlink" viewBox="0 0 64 64" width="64px" height="64px">
<g id="surface129268067">
<path style=" stroke:none;fill-rule:nonzero;fill:rgb(23.137255%,65.882355%,41.960785%);fill-opacity:1;" d="M 46 59 C 45.558594 59 45.183594 58.710938 45.050781 58.3125 L 18 17.324219 L 18 58 C 18 58.550781 17.554688 59 17 59 L 13 59 C 12.445312 59 12 58.550781 12 58 L 12 7 C 12 6.449219 12.445312 6 13 6 L 21 6 C 21.335938 6 21.644531 6.167969 21.832031 6.445312 L 46 42.652344 L 46 7 C 46 6.449219 46.445312 6 47 6 L 51 6 C 51.554688 6 52 6.449219 52 7 L 52 58 C 52 58.550781 51.554688 59 51 59 Z M 46 59 "/>
<path style=" stroke:none;fill-rule:nonzero;fill:rgb(21.960784%,76.862746%,47.843137%);fill-opacity:1;" d="M 18.25 17.667969 L 45.1875 58.5625 C 47.601562 56.953125 48.273438 53.695312 46.683594 51.261719 L 25.539062 19.214844 C 23.945312 16.78125 20.691406 16.09375 18.25 17.667969 Z M 18.25 17.667969 "/>
<path style=" stroke:none;fill-rule:nonzero;fill:rgb(25.882354%,35.294119%,32.941177%);fill-opacity:1;" d="M 21.4375 15.5625 C 21.109375 15.5625 20.789062 15.402344 20.597656 15.109375 L 18.6875 12.164062 C 18.386719 11.699219 18.515625 11.082031 18.980469 10.78125 C 19.441406 10.480469 20.0625 10.609375 20.363281 11.074219 L 22.277344 14.019531 C 22.578125 14.480469 22.445312 15.101562 21.980469 15.402344 C 21.8125 15.511719 21.625 15.5625 21.4375 15.5625 Z M 28.476562 25.882812 C 28.15625 25.882812 27.839844 25.726562 27.644531 25.441406 L 23.171875 18.808594 C 22.863281 18.351562 22.984375 17.730469 23.441406 17.421875 C 23.898438 17.113281 24.519531 17.234375 24.828125 17.691406 L 29.304688 24.320312 C 29.613281 24.78125 29.492188 25.402344 29.035156 25.710938 C 28.863281 25.824219 28.667969 25.882812 28.476562 25.882812 Z M 28.476562 25.882812 "/>
<path style=" stroke:none;fill-rule:nonzero;fill:rgb(25.882354%,35.294119%,32.941177%);fill-opacity:1;" d="M 51 7 L 51 58 L 46 58 L 46 57.9375 L 19.371094 17.585938 C 18.664062 16.515625 17 17.015625 17 18.296875 L 17 58 L 13 58 L 13 7 L 21 7 L 47 45.953125 L 47 7 L 51 7 M 51 5 L 47 5 C 45.894531 5 45 5.894531 45 7 L 45 39.351562 L 22.664062 5.890625 C 22.292969 5.335938 21.667969 5 21 5 L 13 5 C 11.894531 5 11 5.894531 11 7 L 11 58 C 11 59.105469 11.894531 60 13 60 L 17 60 C 18.105469 60 19 59.105469 19 58 L 19 20.652344 L 44.152344 58.773438 C 44.457031 59.492188 45.167969 60 46 60 L 51 60 C 52.105469 60 53 59.105469 53 58 L 53 7 C 53 5.894531 52.105469 5 51 5 Z M 51 5 "/>
<path style=" stroke:none;fill-rule:nonzero;fill:rgb(25.882354%,35.294119%,32.941177%);fill-opacity:1;" d="M 23.652344 38.566406 C 23.957031 39.027344 24.578125 39.152344 25.039062 38.847656 L 26.707031 37.746094 C 27.167969 37.441406 27.296875 36.820312 26.988281 36.359375 C 26.6875 35.898438 26.066406 35.773438 25.605469 36.078125 L 23.933594 37.179688 C 23.476562 37.484375 23.347656 38.105469 23.652344 38.566406 Z M 20.898438 34.394531 C 21.199219 34.855469 21.820312 34.980469 22.28125 34.675781 L 23.953125 33.574219 C 24.414062 33.269531 24.539062 32.648438 24.234375 32.1875 C 23.929688 31.726562 23.308594 31.601562 22.847656 31.90625 L 21.179688 33.007812 C 20.71875 33.3125 20.59375 33.933594 20.898438 34.394531 Z M 26.40625 42.738281 C 26.710938 43.199219 27.332031 43.328125 27.792969 43.023438 L 29.464844 41.921875 C 29.925781 41.617188 30.050781 40.996094 29.746094 40.535156 C 29.441406 40.074219 28.820312 39.945312 28.359375 40.25 L 26.691406 41.351562 C 26.230469 41.65625 26.101562 42.277344 26.40625 42.738281 Z M 29.164062 46.910156 C 29.46875 47.371094 30.089844 47.5 30.550781 47.195312 L 32.21875 46.09375 C 32.679688 45.789062 32.804688 45.167969 32.5 44.707031 C 32.195312 44.246094 31.574219 44.117188 31.113281 44.421875 L 29.445312 45.523438 C 28.984375 45.828125 28.859375 46.449219 29.164062 46.910156 Z M 34.671875 55.257812 C 34.976562 55.71875 35.597656 55.84375 36.058594 55.539062 L 37.726562 54.4375 C 38.1875 54.132812 38.316406 53.511719 38.011719 53.050781 C 37.707031 52.589844 37.085938 52.464844 36.625 52.769531 L 34.957031 53.871094 C 34.496094 54.175781 34.367188 54.796875 34.671875 55.257812 Z M 31.917969 51.085938 C 32.222656 51.546875 32.84375 51.671875 33.304688 51.367188 L 34.972656 50.265625 C 35.433594 49.960938 35.5625 49.339844 35.257812 48.878906 C 34.953125 48.417969 34.332031 48.289062 33.871094 48.597656 L 32.199219 49.699219 C 31.742188 50.003906 31.613281 50.621094 31.917969 51.085938 Z M 37.429688 59.429688 C 37.734375 59.890625 38.355469 60.015625 38.816406 59.710938 L 40.484375 58.609375 C 40.945312 58.304688 41.070312 57.683594 40.765625 57.222656 C 40.464844 56.761719 39.84375 56.636719 39.382812 56.941406 L 37.710938 58.042969 C 37.25 58.347656 37.125 58.96875 37.429688 59.429688 Z M 37.429688 59.429688 "/>
</g>
</svg>
