<?xml version="1.0" encoding="UTF-8"?>
<svg xmlns="http://www.w3.org/2000/svg" xmlns:xlink="http://www.w3.org/1999/xlink" viewBox="0 0 64 64" width="64px" height="64px">
<g id="surface129802350">
<path style=" stroke:none;fill-rule:nonzero;fill:rgb(75.686276%,73.333335%,73.333335%);fill-opacity:1;" d="M 15.503906 16.726562 C 15.871094 9.042969 19.210938 5 23 5 C 27.738281 5 29.398438 14.199219 21.558594 19.359375 Z M 15.503906 16.726562 "/>
<path style=" stroke:none;fill-rule:nonzero;fill:rgb(30.588236%,20.392157%,8.235294%);fill-opacity:1;" d="M 21.558594 20.359375 C 21.441406 20.359375 21.328125 20.339844 21.21875 20.300781 L 14.660156 17.941406 C 14.246094 17.792969 13.980469 17.390625 14 16.953125 C 14.40625 8.449219 18.835938 4 23 4 C 25.148438 4 26.933594 5.5 27.65625 7.917969 C 28.695312 11.386719 27.402344 16.710938 22.105469 20.195312 C 21.941406 20.304688 21.75 20.359375 21.558594 20.359375 Z M 16.046875 16.3125 L 21.414062 18.246094 C 25.519531 15.332031 26.550781 11.1875 25.742188 8.488281 C 25.273438 6.929688 24.25 6 23 6 C 19.972656 6 16.585938 9.609375 16.046875 16.3125 Z M 16.046875 16.3125 "/>
<path style=" stroke:none;fill-rule:nonzero;fill:rgb(76.47059%,73.333335%,72.941178%);fill-opacity:1;" d="M 51.070312 28.765625 C 44.371094 20.957031 35.894531 17.917969 26.253906 15.726562 L 14.464844 13.730469 C 13.511719 7.839844 10.496094 5 7.199219 5 C 2.277344 5 1.421875 11.632812 6.03125 16.800781 L 6.03125 52.363281 C 6.03125 54.808594 8.589844 56.363281 11 56 C 19.941406 54.644531 37.835938 52.554688 43.359375 45.535156 C 49.511719 47.160156 51.613281 53.027344 52.023438 57.847656 C 52.128906 59.0625 53.074219 60 54.230469 60 L 57.78125 60 C 59.011719 60 60.003906 58.941406 60 57.640625 C 59.957031 47.503906 59.363281 38.433594 51.070312 28.765625 Z M 51.070312 28.765625 "/>
<path style=" stroke:none;fill-rule:nonzero;fill:rgb(75.686276%,73.333335%,73.333335%);fill-opacity:1;" d="M 51.027344 28.917969 C 49.863281 27.578125 47.644531 25.066406 46.375 23.988281 L 46.34375 24.019531 C 44.359375 26.070312 44.429688 29.316406 46.445312 31.335938 C 46.746094 31.636719 47.019531 31.929688 47.253906 32.199219 C 51.148438 36.675781 53.089844 40.945312 54.050781 45.476562 C 54.085938 45.640625 54.179688 45.902344 54.308594 46.234375 C 56.019531 50.550781 56.714844 55.207031 56.199219 59.824219 L 56.152344 60.246094 C 57.386719 60.246094 60.003906 58.828125 60 57.539062 C 59.957031 47.488281 59.363281 38.5 51.027344 28.917969 Z M 51.027344 28.917969 "/>
<path style=" stroke:none;fill-rule:nonzero;fill:rgb(30.588236%,20.392157%,8.235294%);fill-opacity:1;" d="M 57.992188 61 L 53.980469 61 C 52.390625 61 51.121094 59.664062 50.964844 57.824219 C 50.738281 55.226562 49.535156 49.105469 43.285156 47.136719 C 37.484375 53.515625 22.289062 55.519531 13.113281 56.726562 L 11.132812 56.992188 C 9.597656 57.195312 7.953125 56.683594 6.730469 55.613281 C 5.613281 54.640625 5 53.355469 5 52 L 5 17.378906 C 1.867188 13.71875 1.609375 9.40625 2.726562 6.882812 C 3.539062 5.050781 5.03125 4 6.824219 4 C 10.363281 4 14.460938 7.136719 15.707031 13.136719 L 26.152344 15.007812 C 36.632812 17.347656 44.972656 20.492188 51.75 28.261719 C 60.226562 37.972656 60.953125 47.265625 61 57.535156 C 61.003906 58.558594 60.636719 59.519531 59.988281 60.167969 C 59.445312 60.710938 58.757812 61 57.992188 61 Z M 42.941406 45 C 43.027344 45 43.109375 45.011719 43.195312 45.03125 C 51.199219 47.109375 52.6875 54.550781 52.957031 57.652344 C 53.011719 58.300781 53.355469 59 53.980469 59 L 57.992188 59 C 58.21875 59 58.40625 58.921875 58.570312 58.753906 C 58.84375 58.484375 59.003906 58.03125 59 57.542969 C 58.953125 47.328125 58.28125 38.785156 50.242188 29.574219 C 43.824219 22.21875 35.8125 19.214844 25.761719 16.964844 L 14.675781 14.984375 C 14.257812 14.910156 13.933594 14.582031 13.863281 14.164062 C 12.984375 8.804688 9.65625 6 6.824219 6 C 5.503906 6 4.835938 7.0625 4.554688 7.691406 C 3.660156 9.710938 3.964844 13.269531 6.738281 16.328125 C 6.90625 16.511719 7 16.75 7 17 L 7 52 C 7 52.769531 7.371094 53.519531 8.046875 54.109375 C 8.84375 54.804688 9.898438 55.144531 10.863281 55.007812 L 12.851562 54.742188 C 21.972656 53.542969 37.234375 51.53125 42.160156 45.375 C 42.355469 45.136719 42.644531 45 42.941406 45 Z M 42.941406 45 "/>
<path style=" stroke:none;fill-rule:nonzero;fill:rgb(30.588236%,20.392157%,8.235294%);fill-opacity:1;" d="M 52.972656 46.238281 C 52.515625 46.238281 52.105469 45.925781 51.996094 45.464844 C 51.875 44.925781 52.210938 44.390625 52.75 44.265625 L 54.699219 43.820312 C 55.226562 43.695312 55.773438 44.03125 55.898438 44.570312 C 56.019531 45.109375 55.683594 45.644531 55.144531 45.769531 L 53.195312 46.214844 C 53.121094 46.230469 53.046875 46.238281 52.972656 46.238281 Z M 52.972656 46.238281 "/>
<path style=" stroke:none;fill-rule:nonzero;fill:rgb(30.588236%,20.392157%,8.235294%);fill-opacity:1;" d="M 51.351562 41.324219 C 50.96875 41.324219 50.601562 41.101562 50.4375 40.726562 C 50.210938 40.222656 50.441406 39.632812 50.945312 39.410156 L 52.773438 38.597656 C 53.28125 38.371094 53.867188 38.601562 54.09375 39.109375 C 54.316406 39.613281 54.089844 40.203125 53.582031 40.425781 L 51.753906 41.238281 C 51.621094 41.296875 51.484375 41.324219 51.351562 41.324219 Z M 51.351562 41.324219 "/>
<path style=" stroke:none;fill-rule:nonzero;fill:rgb(30.588236%,20.392157%,8.235294%);fill-opacity:1;" d="M 48.804688 36.8125 C 48.488281 36.8125 48.175781 36.660156 47.980469 36.378906 C 47.667969 35.925781 47.78125 35.304688 48.234375 34.988281 L 49.878906 33.847656 C 50.335938 33.535156 50.957031 33.648438 51.273438 34.101562 C 51.585938 34.554688 51.472656 35.179688 51.019531 35.492188 L 49.375 36.632812 C 49.199219 36.753906 49 36.8125 48.804688 36.8125 Z M 48.804688 36.8125 "/>
<path style=" stroke:none;fill-rule:nonzero;fill:rgb(30.588236%,20.392157%,8.235294%);fill-opacity:1;" d="M 45.507812 32.773438 C 45.246094 32.773438 44.984375 32.667969 44.789062 32.464844 C 44.40625 32.070312 44.417969 31.433594 44.8125 31.050781 L 46.253906 29.664062 C 46.648438 29.28125 47.285156 29.292969 47.667969 29.6875 C 48.050781 30.085938 48.039062 30.71875 47.640625 31.101562 L 46.203125 32.492188 C 46.007812 32.679688 45.757812 32.773438 45.507812 32.773438 Z M 45.507812 32.773438 "/>
<path style=" stroke:none;fill-rule:nonzero;fill:rgb(100%,97.254902%,93.333334%);fill-opacity:1;" d="M 31.679688 30.621094 C 32.835938 33.371094 30.890625 36.8125 27.332031 38.308594 C 23.773438 39.804688 19.949219 38.789062 18.796875 36.039062 C 17.640625 33.292969 19.585938 29.851562 23.144531 28.355469 C 26.703125 26.859375 30.523438 27.875 31.679688 30.621094 Z M 31.679688 30.621094 "/>
<path style=" stroke:none;fill-rule:nonzero;fill:rgb(30.588236%,20.392157%,8.235294%);fill-opacity:1;" d="M 23.757812 39.992188 C 20.773438 39.992188 18.183594 38.597656 17.308594 36.234375 C 16.820312 34.914062 16.910156 33.472656 17.566406 32.066406 C 18.496094 30.085938 20.417969 28.460938 22.839844 27.605469 C 27.078125 26.101562 31.503906 27.523438 32.703125 30.765625 C 33.191406 32.085938 33.105469 33.527344 32.445312 34.933594 C 31.515625 36.914062 29.59375 38.539062 27.171875 39.394531 C 26.023438 39.800781 24.863281 39.992188 23.757812 39.992188 Z M 26.316406 28.992188 C 25.414062 28.992188 24.457031 29.152344 23.503906 29.488281 C 21.613281 30.15625 20.070312 31.4375 19.378906 32.914062 C 19.078125 33.550781 18.804688 34.519531 19.183594 35.539062 C 20.003906 37.761719 23.289062 38.644531 26.507812 37.511719 C 28.398438 36.84375 29.941406 35.5625 30.632812 34.085938 C 30.929688 33.449219 31.207031 32.480469 30.828125 31.460938 C 30.25 29.894531 28.449219 28.992188 26.316406 28.992188 Z M 26.316406 28.992188 "/>
<path style=" stroke:none;fill-rule:nonzero;fill:rgb(30.588236%,20.392157%,8.235294%);fill-opacity:1;" d="M 25 35.5 C 25 36.878906 23.878906 38 22.5 38 C 21.121094 38 20 36.878906 20 35.5 C 20 34.121094 21.121094 33 22.5 33 C 23.878906 33 25 34.121094 25 35.5 Z M 25 35.5 "/>
<path style=" stroke:none;fill-rule:nonzero;fill:rgb(30.588236%,20.392157%,8.235294%);fill-opacity:1;" d="M 10.121094 15.859375 C 10.433594 16.148438 11.003906 15.964844 11 15.570312 C 10.96875 12.828125 10.6875 9.550781 8.335938 10.050781 C 5.457031 10.816406 7.785156 13.714844 10.121094 15.859375 Z M 10.121094 15.859375 "/>
<path style=" stroke:none;fill-rule:nonzero;fill:rgb(30.588236%,20.392157%,8.235294%);fill-opacity:1;" d="M 43 47 C 42.878906 47 42.753906 46.976562 42.632812 46.929688 C 42.550781 46.898438 37.800781 45.097656 31.273438 46.960938 C 30.75 47.109375 30.191406 46.808594 30.039062 46.273438 C 29.886719 45.742188 30.195312 45.191406 30.726562 45.039062 C 37.972656 42.972656 43.15625 44.984375 43.371094 45.070312 C 43.886719 45.277344 44.136719 45.859375 43.929688 46.371094 C 43.773438 46.761719 43.394531 47 43 47 Z M 43 47 "/>
</g>
</svg>
