<?xml version="1.0" encoding="UTF-8"?>
<svg xmlns="http://www.w3.org/2000/svg" xmlns:xlink="http://www.w3.org/1999/xlink" viewBox="0 0 64 64" width="64px" height="64px">
<g id="surface129241859">
<path style=" stroke:none;fill-rule:nonzero;fill:rgb(71.372551%,52.156866%,97.254902%);fill-opacity:1;" d="M 31 5 C 15.535156 5 3 17.535156 3 33 C 3 48.464844 15.535156 61 31 61 C 46.464844 61 59 48.464844 59 33 C 59 17.535156 46.464844 5 31 5 Z M 31 5 "/>
<path style=" stroke:none;fill-rule:nonzero;fill:rgb(73.333335%,48.235294%,92.156863%);fill-opacity:1;" d="M 7.339844 33 C 6.152344 32.996094 5.023438 33.519531 4.261719 34.429688 C 3.5 35.339844 3.179688 36.542969 3.390625 37.710938 C 5.675781 51.171875 17.339844 61.023438 30.996094 61.023438 C 44.652344 61.023438 56.3125 51.171875 58.601562 37.710938 C 58.808594 36.542969 58.492188 35.34375 57.730469 34.433594 C 56.972656 33.523438 55.847656 33 54.660156 33 Z M 7.339844 33 "/>
<path style=" stroke:none;fill-rule:nonzero;fill:rgb(71.372551%,52.156866%,97.254902%);fill-opacity:1;" d="M 53 33 C 53 45.148438 43.148438 55 31 55 C 29.714844 55.003906 28.433594 54.890625 27.171875 54.660156 C 23.398438 53.996094 19.867188 52.351562 16.929688 49.890625 C 16.214844 49.273438 15.546875 48.605469 14.929688 47.890625 C 12.367188 45.160156 10.542969 41.828125 9.621094 38.199219 C 9.210938 36.496094 9 34.75 9 33 C 9 20.851562 18.851562 11 31 11 C 34.078125 11.007812 37.117188 11.652344 39.929688 12.898438 C 42.140625 13.886719 44.167969 15.238281 45.929688 16.898438 C 46.636719 17.523438 47.304688 18.191406 47.929688 18.898438 C 50.382812 21.839844 52.023438 25.371094 52.691406 29.140625 C 52.910156 30.414062 53.015625 31.707031 53 33 Z M 53 33 "/>
<path style=" stroke:none;fill-rule:nonzero;fill:rgb(97.647059%,89.019608%,100%);fill-opacity:1;" d="M 12.761719 54.058594 C 15.5625 56.492188 18.832031 58.328125 22.371094 59.460938 L 21.890625 59.941406 C 18.480469 58.613281 15.363281 56.632812 12.710938 54.109375 Z M 12.761719 54.058594 "/>
<path style=" stroke:none;fill-rule:nonzero;fill:rgb(78.431374%,62.352943%,100%);fill-opacity:1;" d="M 52.660156 29.171875 L 27.171875 54.660156 C 23.398438 53.996094 19.867188 52.351562 16.929688 49.890625 L 47.929688 18.890625 C 50.378906 21.84375 52.011719 25.386719 52.660156 29.171875 Z M 45.949219 16.878906 L 14.878906 47.941406 C 13.902344 46.898438 13.03125 45.765625 12.28125 44.550781 L 42.550781 14.28125 C 43.761719 15.039062 44.902344 15.90625 45.949219 16.878906 Z M 39.929688 12.898438 L 10.929688 41.898438 C 10.382812 40.710938 9.941406 39.472656 9.621094 38.199219 L 36.199219 11.628906 C 37.480469 11.9375 38.726562 12.363281 39.929688 12.898438 Z M 39.929688 12.898438 "/>
<path style=" stroke:none;fill-rule:nonzero;fill:rgb(99.215686%,97.254902%,100%);fill-opacity:1;" d="M 15.28125 28.28125 L 16.339844 30.21875 L 18.289062 31.28125 L 16.339844 32.339844 L 15.28125 34.289062 L 14.21875 32.339844 L 12.28125 31.28125 L 14.21875 30.21875 Z M 40.589844 36.03125 L 41.089844 36.949219 L 42 37.449219 L 41.089844 37.941406 L 40.589844 38.859375 L 40.089844 37.941406 L 39.171875 37.449219 L 40.089844 36.949219 Z M 43.421875 22 L 44.269531 23.558594 L 45.839844 24.421875 L 44.269531 25.269531 L 43.421875 26.839844 L 42.558594 25.269531 L 41 24.421875 L 42.558594 23.558594 Z M 43.421875 22 "/>
<path style=" stroke:none;fill-rule:nonzero;fill:rgb(96.078432%,87.058824%,98.039216%);fill-opacity:1;" d="M 36.921875 45 C 36.566406 44.996094 36.238281 44.808594 36.058594 44.5 L 31 35.769531 L 28.691406 35.769531 L 28.691406 44 C 28.691406 44.550781 28.242188 45 27.691406 45 L 24 45 C 23.449219 45 23 44.550781 23 44 L 23 20 C 23 19.449219 23.449219 19 24 19 L 32.308594 19 C 35.699219 19.007812 38.75 21.046875 40.046875 24.179688 C 41.34375 27.308594 40.628906 30.910156 38.238281 33.308594 C 37.871094 33.679688 37.46875 34.011719 37.039062 34.308594 L 42.398438 43.5 C 42.578125 43.808594 42.578125 44.1875 42.402344 44.496094 C 42.222656 44.804688 41.894531 44.996094 41.539062 45 Z M 32.308594 30.078125 C 33.796875 30.078125 35 28.875 35 27.390625 C 35 25.90625 33.796875 24.699219 32.308594 24.699219 L 28.691406 24.699219 L 28.691406 30.078125 Z M 32.308594 30.078125 "/>
<path style=" stroke:none;fill-rule:nonzero;fill:rgb(55.29412%,42.352942%,62.352943%);fill-opacity:1;" d="M 38.351562 13.320312 C 39.066406 13.589844 39.765625 13.894531 40.449219 14.238281 C 40.589844 14.3125 40.742188 14.347656 40.898438 14.351562 C 41.359375 14.347656 41.761719 14.03125 41.867188 13.582031 C 41.972656 13.132812 41.761719 12.671875 41.351562 12.460938 C 40.601562 12.085938 39.835938 11.75 39.050781 11.460938 C 38.542969 11.304688 38.003906 11.566406 37.816406 12.066406 C 37.632812 12.5625 37.863281 13.117188 38.351562 13.328125 Z M 38.351562 13.320312 "/>
<path style=" stroke:none;fill-rule:nonzero;fill:rgb(55.29412%,42.352942%,62.352943%);fill-opacity:1;" d="M 31 4 C 14.984375 4 2 16.984375 2 33 C 2 49.015625 14.984375 62 31 62 C 47.015625 62 60 49.015625 60 33 C 60 16.984375 47.015625 4 31 4 Z M 31 60 C 16.089844 60 4 47.910156 4 33 C 4 18.089844 16.089844 6 31 6 C 45.910156 6 58 18.089844 58 33 C 58 47.910156 45.910156 60 31 60 Z M 31 60 "/>
<path style=" stroke:none;fill-rule:nonzero;fill:rgb(55.29412%,42.352942%,62.352943%);fill-opacity:1;" d="M 31 51 C 30.449219 51 30 51.449219 30 52 L 30 54 C 30 54.550781 30.449219 55 31 55 C 31.550781 55 32 54.550781 32 54 L 32 52 C 32 51.449219 31.550781 51 31 51 Z M 37 51.078125 C 36.84375 50.566406 36.304688 50.265625 35.785156 50.40625 C 35.261719 50.546875 34.949219 51.074219 35.070312 51.601562 L 35.589844 53.53125 C 35.738281 54.066406 36.289062 54.382812 36.824219 54.234375 C 37.359375 54.089844 37.675781 53.535156 37.53125 53 Z M 21.75 48.519531 C 21.519531 48.386719 21.246094 48.351562 20.988281 48.417969 C 20.730469 48.488281 20.511719 48.660156 20.378906 48.890625 L 19.378906 50.621094 C 19.132812 51.09375 19.300781 51.679688 19.765625 51.949219 C 20.230469 52.21875 20.824219 52.070312 21.109375 51.621094 L 22.109375 49.890625 C 22.246094 49.660156 22.28125 49.386719 22.214844 49.128906 C 22.148438 48.875 21.980469 48.652344 21.75 48.519531 Z M 41.621094 48.890625 C 41.332031 48.4375 40.738281 48.292969 40.277344 48.5625 C 39.8125 48.828125 39.640625 49.414062 39.890625 49.890625 L 40.890625 51.621094 C 41.058594 51.945312 41.394531 52.152344 41.761719 52.15625 C 42.128906 52.160156 42.46875 51.964844 42.648438 51.644531 C 42.828125 51.324219 42.816406 50.929688 42.621094 50.621094 Z M 26.210938 50.371094 C 25.675781 50.230469 25.132812 50.546875 24.988281 51.078125 L 24.46875 53 C 24.363281 53.347656 24.453125 53.730469 24.710938 53.992188 C 24.964844 54.253906 25.34375 54.355469 25.695312 54.257812 C 26.046875 54.160156 26.316406 53.875 26.398438 53.519531 L 26.921875 51.589844 C 27.058594 51.058594 26.742188 50.511719 26.210938 50.371094 Z M 16.148438 18.148438 C 20.925781 13.394531 27.683594 11.210938 34.339844 12.269531 C 34.890625 12.359375 35.410156 11.980469 35.5 11.429688 C 35.589844 10.878906 35.210938 10.359375 34.660156 10.269531 C 24.800781 8.667969 15.03125 13.613281 10.484375 22.511719 C 5.941406 31.40625 7.660156 42.21875 14.738281 49.269531 C 15.136719 49.609375 15.726562 49.585938 16.097656 49.21875 C 16.46875 48.847656 16.488281 48.257812 16.148438 47.859375 C 12.207031 43.921875 9.992188 38.578125 9.992188 33.003906 C 9.992188 27.433594 12.207031 22.089844 16.148438 18.148438 Z M 47.261719 16.738281 C 46.601562 16.078125 45.902344 15.457031 45.171875 14.878906 C 44.894531 14.628906 44.496094 14.550781 44.144531 14.683594 C 43.792969 14.8125 43.546875 15.128906 43.503906 15.503906 C 43.460938 15.875 43.628906 16.242188 43.941406 16.449219 C 44.609375 16.976562 45.246094 17.546875 45.851562 18.148438 C 49.789062 22.089844 52 27.429688 52 33 C 52 38.570312 49.789062 43.910156 45.851562 47.851562 C 45.566406 48.09375 45.441406 48.476562 45.527344 48.84375 C 45.617188 49.207031 45.902344 49.492188 46.265625 49.582031 C 46.632812 49.667969 47.015625 49.546875 47.261719 49.261719 C 56.238281 40.277344 56.238281 25.722656 47.261719 16.738281 Z M 47.261719 16.738281 "/>
<path style=" stroke:none;fill-rule:nonzero;fill:rgb(55.29412%,42.352942%,62.352943%);fill-opacity:1;" d="M 38.351562 34.570312 C 38.550781 34.402344 38.742188 34.226562 38.929688 34.039062 C 41.59375 31.351562 42.382812 27.332031 40.933594 23.835938 C 39.488281 20.339844 36.082031 18.054688 32.300781 18.039062 L 24 18.039062 C 22.894531 18.039062 22 18.933594 22 20.039062 L 22 44 C 22 45.105469 22.894531 46 24 46 L 27.691406 46 C 28.792969 46 29.691406 45.105469 29.691406 44 L 29.691406 36.769531 L 30.378906 36.769531 L 35.199219 45 C 35.558594 45.617188 36.214844 46 36.929688 46 L 41.550781 46 C 42.265625 46 42.921875 45.617188 43.28125 45 C 43.636719 44.378906 43.636719 43.617188 43.28125 43 Z M 36.921875 44 L 31.53125 34.769531 L 27.691406 34.769531 L 27.691406 44 L 24 44 L 24 20 L 32.308594 20 C 35.296875 20.003906 37.984375 21.804688 39.128906 24.5625 C 40.269531 27.320312 39.640625 30.496094 37.53125 32.609375 C 36.984375 33.152344 36.359375 33.605469 35.671875 33.949219 L 41.539062 44 Z M 36.921875 44 "/>
<path style=" stroke:none;fill-rule:nonzero;fill:rgb(55.29412%,42.352942%,62.352943%);fill-opacity:1;" d="M 32.308594 23.691406 L 27.691406 23.691406 L 27.691406 31.070312 L 32.308594 31.070312 C 34.347656 31.070312 36 29.417969 36 27.378906 C 36 25.34375 34.347656 23.691406 32.308594 23.691406 Z M 33.5 28.589844 C 33.179688 28.898438 32.753906 29.070312 32.308594 29.070312 L 29.691406 29.070312 L 29.691406 25.691406 L 32.308594 25.691406 C 33.242188 25.691406 34 26.445312 34 27.378906 C 34 27.832031 33.820312 28.269531 33.5 28.589844 Z M 33.5 28.589844 "/>
</g>
</svg>
