<?xml version="1.0" encoding="UTF-8"?>
<svg xmlns="http://www.w3.org/2000/svg" xmlns:xlink="http://www.w3.org/1999/xlink" viewBox="0 0 64 64" width="64px" height="64px">
<g id="surface136030598">
<path style=" stroke:none;fill-rule:nonzero;fill:rgb(76.078433%,80.392158%,90.588236%);fill-opacity:1;" d="M 61 29.558594 L 61 34.441406 C 61 35.359375 60.378906 36.160156 59.488281 36.378906 L 55.960938 37.261719 C 55.601562 37.351562 55.328125 37.628906 55.238281 37.988281 C 54.671875 40.199219 53.800781 42.28125 52.660156 44.199219 C 52.480469 44.519531 52.46875 44.910156 52.660156 45.21875 L 54.53125 48.339844 C 55 49.128906 54.878906 50.128906 54.230469 50.78125 L 50.78125 54.230469 C 50.128906 54.878906 49.128906 55 48.339844 54.53125 L 45.21875 52.660156 C 44.910156 52.46875 44.519531 52.480469 44.199219 52.660156 C 42.28125 53.800781 40.199219 54.671875 37.980469 55.238281 C 37.628906 55.328125 37.351562 55.601562 37.261719 55.960938 L 36.378906 59.488281 C 36.160156 60.378906 35.359375 61 34.441406 61 L 29.558594 61 C 28.640625 61 27.839844 60.378906 27.621094 59.488281 L 26.738281 55.960938 C 26.648438 55.601562 26.371094 55.328125 26.019531 55.238281 C 25.949219 55.21875 25.890625 55.210938 25.820312 55.179688 C 23.671875 54.621094 21.660156 53.769531 19.800781 52.660156 C 19.480469 52.480469 19.089844 52.46875 18.78125 52.660156 L 15.660156 54.53125 C 14.871094 55 13.871094 54.878906 13.21875 54.230469 L 9.769531 50.78125 C 9.121094 50.128906 9 49.128906 9.46875 48.339844 L 11.339844 45.21875 C 11.460938 45.019531 11.5 44.78125 11.449219 44.550781 C 11.441406 44.429688 11.398438 44.308594 11.339844 44.199219 C 10.890625 43.449219 10.488281 42.671875 10.128906 41.871094 C 9.589844 40.691406 9.148438 39.46875 8.808594 38.191406 C 8.800781 38.121094 8.78125 38.058594 8.761719 37.988281 C 8.671875 37.628906 8.398438 37.351562 8.039062 37.261719 L 4.511719 36.378906 C 3.621094 36.160156 3 35.359375 3 34.441406 L 3 29.558594 C 3 28.640625 3.621094 27.839844 4.511719 27.621094 L 8.039062 26.738281 C 8.398438 26.648438 8.671875 26.371094 8.761719 26.011719 C 9.328125 23.800781 10.199219 21.71875 11.339844 19.800781 C 11.519531 19.480469 11.53125 19.089844 11.339844 18.78125 L 9.46875 15.660156 C 9 14.871094 9.121094 13.871094 9.769531 13.21875 L 13.21875 9.769531 C 13.871094 9.121094 14.871094 9 15.660156 9.46875 L 18.78125 11.339844 C 19.089844 11.53125 19.480469 11.519531 19.800781 11.339844 C 21.71875 10.199219 23.800781 9.328125 26.011719 8.761719 C 26.371094 8.671875 26.648438 8.398438 26.738281 8.039062 L 27.621094 4.511719 C 27.839844 3.621094 28.640625 3 29.558594 3 L 34.441406 3 C 35.359375 3 36.160156 3.621094 36.378906 4.511719 L 37.261719 8.039062 C 37.351562 8.398438 37.628906 8.671875 37.988281 8.761719 C 38.058594 8.78125 38.121094 8.800781 38.191406 8.808594 C 39.46875 9.148438 40.699219 9.601562 41.878906 10.128906 C 42.679688 10.488281 43.449219 10.898438 44.199219 11.339844 C 44.308594 11.398438 44.429688 11.441406 44.550781 11.449219 C 44.78125 11.5 45.019531 11.460938 45.21875 11.339844 L 48.339844 9.46875 C 49.128906 9 50.128906 9.121094 50.78125 9.769531 L 54.230469 13.21875 C 54.878906 13.871094 55 14.871094 54.53125 15.660156 L 52.660156 18.78125 C 52.46875 19.089844 52.480469 19.480469 52.660156 19.800781 C 53.769531 21.660156 54.621094 23.671875 55.191406 25.808594 C 55.199219 25.878906 55.21875 25.941406 55.238281 26.011719 C 55.328125 26.371094 55.601562 26.648438 55.960938 26.738281 L 59.488281 27.621094 C 60.378906 27.839844 61 28.640625 61 29.558594 Z M 61 29.558594 "/>
<path style=" stroke:none;fill-rule:nonzero;fill:rgb(82.745099%,86.666667%,92.941177%);fill-opacity:1;" d="M 27.082031 16.496094 L 28.320312 18.761719 L 30.585938 20 L 28.320312 21.238281 L 27.082031 23.5 L 25.84375 21.238281 L 23.578125 20 L 25.84375 18.761719 Z M 36.808594 41 L 37.664062 42.5625 L 39.226562 43.417969 L 37.664062 44.273438 L 36.808594 45.839844 L 35.953125 44.273438 L 34.390625 43.417969 L 35.953125 42.5625 Z M 51 30.644531 L 51.582031 31.710938 L 52.648438 32.292969 L 51.582031 32.878906 L 51 33.941406 L 50.417969 32.878906 L 49.351562 32.292969 L 50.417969 31.710938 Z M 51 30.644531 "/>
<path style=" stroke:none;fill-rule:nonzero;fill:rgb(39.607844%,30.19608%,44.705883%);fill-opacity:1;" d="M 59.726562 26.652344 L 56.210938 25.765625 C 55.625 23.488281 54.722656 21.308594 53.519531 19.289062 L 55.390625 16.175781 C 56.097656 14.992188 55.914062 13.484375 54.9375 12.511719 L 51.488281 9.0625 C 50.511719 8.085938 49.007812 7.902344 47.824219 8.609375 L 44.710938 10.472656 C 42.6875 9.277344 40.507812 8.371094 38.230469 7.796875 L 37.351562 4.269531 C 37.015625 2.933594 35.816406 2 34.4375 2 L 29.5625 2 C 28.183594 2 26.984375 2.933594 26.648438 4.273438 L 25.765625 7.789062 C 23.492188 8.375 21.3125 9.277344 19.289062 10.480469 L 16.175781 8.609375 C 14.992188 7.902344 13.488281 8.089844 12.511719 9.0625 L 9.0625 12.511719 C 8.085938 13.484375 7.902344 14.992188 8.609375 16.175781 L 10.472656 19.289062 C 9.277344 21.308594 8.375 23.488281 7.796875 25.769531 L 4.273438 26.648438 C 2.933594 26.984375 2 28.183594 2 29.5625 L 2 34.4375 C 2 35.816406 2.933594 37.015625 4.273438 37.347656 L 7.789062 38.234375 C 8.375 40.511719 9.277344 42.691406 10.480469 44.710938 L 8.609375 47.824219 C 7.902344 49.007812 8.085938 50.515625 9.0625 51.488281 L 12.511719 54.9375 C 13.488281 55.914062 14.992188 56.097656 16.175781 55.390625 L 19.289062 53.527344 C 21.3125 54.722656 23.492188 55.628906 25.769531 56.203125 L 26.652344 59.730469 C 26.984375 61.066406 28.183594 62 29.5625 62 L 34.4375 62 C 35.816406 62 37.015625 61.066406 37.351562 59.726562 L 38.234375 56.210938 C 40.507812 55.625 42.6875 54.722656 44.710938 53.519531 L 47.824219 55.390625 C 49.007812 56.097656 50.515625 55.910156 51.488281 54.9375 L 54.9375 51.488281 C 55.914062 50.515625 56.097656 49.007812 55.390625 47.824219 L 53.527344 44.710938 C 54.722656 42.691406 55.625 40.511719 56.203125 38.230469 L 59.726562 37.351562 C 61.066406 37.015625 62 35.816406 62 34.4375 L 62 29.5625 C 62 28.183594 61.066406 26.984375 59.726562 26.652344 Z M 60 34.4375 C 60 34.898438 59.6875 35.296875 59.242188 35.410156 L 55.714844 36.289062 C 55.007812 36.46875 54.453125 37.023438 54.269531 37.734375 C 53.734375 39.828125 52.902344 41.835938 51.804688 43.691406 C 51.425781 44.324219 51.425781 45.109375 51.804688 45.738281 L 53.675781 48.851562 C 53.910156 49.246094 53.847656 49.75 53.523438 50.074219 L 50.074219 53.523438 C 49.75 53.847656 49.246094 53.90625 48.855469 53.671875 L 45.738281 51.804688 C 45.113281 51.425781 44.328125 51.425781 43.691406 51.804688 C 41.832031 52.90625 39.828125 53.734375 37.738281 54.269531 C 37.023438 54.453125 36.46875 55.007812 36.289062 55.71875 L 35.410156 59.242188 C 35.296875 59.6875 34.898438 60 34.4375 60 L 29.5625 60 C 29.101562 60 28.703125 59.6875 28.589844 59.242188 L 27.710938 55.71875 C 27.53125 55.007812 26.976562 54.453125 26.261719 54.273438 C 24.171875 53.734375 22.167969 52.90625 20.308594 51.804688 C 19.988281 51.617188 19.636719 51.523438 19.28125 51.523438 C 18.925781 51.523438 18.574219 51.617188 18.261719 51.804688 L 15.144531 53.675781 C 14.753906 53.910156 14.25 53.847656 13.925781 53.523438 L 10.476562 50.074219 C 10.152344 49.75 10.089844 49.246094 10.324219 48.855469 L 12.195312 45.738281 C 12.570312 45.109375 12.570312 44.328125 12.195312 43.695312 C 11.09375 41.835938 10.265625 39.832031 9.726562 37.738281 C 9.542969 37.023438 8.992188 36.46875 8.28125 36.289062 L 4.757812 35.410156 C 4.3125 35.296875 4 34.898438 4 34.4375 L 4 29.5625 C 4 29.101562 4.3125 28.703125 4.757812 28.589844 L 8.285156 27.710938 C 8.992188 27.53125 9.546875 26.976562 9.730469 26.261719 C 10.265625 24.167969 11.097656 22.164062 12.195312 20.308594 C 12.570312 19.671875 12.570312 18.886719 12.195312 18.261719 L 10.324219 15.144531 C 10.089844 14.753906 10.152344 14.25 10.476562 13.925781 L 13.925781 10.476562 C 14.25 10.152344 14.753906 10.089844 15.144531 10.324219 L 18.261719 12.195312 C 18.886719 12.570312 19.671875 12.574219 20.308594 12.195312 C 22.167969 11.09375 24.171875 10.265625 26.261719 9.726562 C 26.976562 9.546875 27.53125 8.992188 27.710938 8.28125 L 28.589844 4.757812 C 28.703125 4.3125 29.101562 4 29.5625 4 L 34.4375 4 C 34.898438 4 35.296875 4.3125 35.410156 4.757812 L 36.289062 8.28125 C 36.46875 8.992188 37.019531 9.546875 37.734375 9.726562 C 39.828125 10.265625 41.832031 11.09375 43.691406 12.195312 C 44.328125 12.570312 45.109375 12.574219 45.738281 12.195312 L 48.851562 10.324219 C 49.246094 10.089844 49.75 10.152344 50.074219 10.476562 L 53.523438 13.925781 C 53.847656 14.25 53.910156 14.753906 53.675781 15.144531 L 51.804688 18.261719 C 51.429688 18.886719 51.429688 19.671875 51.804688 20.304688 C 52.90625 22.164062 53.734375 24.167969 54.273438 26.261719 C 54.453125 26.976562 55.007812 27.53125 55.71875 27.710938 L 59.242188 28.589844 C 59.6875 28.703125 60 29.101562 60 29.5625 Z M 60 34.4375 "/>
<path style=" stroke:none;fill-rule:nonzero;fill:rgb(39.607844%,30.19608%,44.705883%);fill-opacity:1;" d="M 47 24 C 47.550781 24 48 23.554688 48 23 C 48 22.445312 47.550781 22 47 22 L 43 22 C 42.449219 22 42 22.445312 42 23 C 42 23.554688 42.449219 24 43 24 L 44 24 L 44 40 L 43 40 C 42.449219 40 42 40.445312 42 41 C 42 41.554688 42.449219 42 43 42 L 47 42 C 47.550781 42 48 41.554688 48 41 C 48 40.445312 47.550781 40 47 40 L 46 40 L 46 24 Z M 26.789062 41.96875 C 26.882812 41.96875 26.980469 41.957031 27.074219 41.929688 C 27.605469 41.769531 27.90625 41.210938 27.746094 40.683594 L 22.347656 22.683594 C 22.21875 22.261719 21.828125 21.96875 21.390625 21.96875 C 20.949219 21.96875 20.558594 22.261719 20.429688 22.683594 L 15.03125 40.683594 C 14.871094 41.210938 15.171875 41.769531 15.703125 41.929688 C 16.230469 42.085938 16.789062 41.785156 16.945312 41.257812 L 18.53125 35.96875 L 24.246094 35.96875 L 25.832031 41.257812 C 25.960938 41.691406 26.355469 41.96875 26.789062 41.96875 Z M 19.132812 33.96875 L 21.386719 26.449219 L 23.644531 33.96875 Z M 36 22 L 31 22 C 30.449219 22 30 22.445312 30 23 L 30 41 C 30 41.554688 30.449219 42 31 42 C 31.550781 42 32 41.554688 32 41 L 32 34 L 36 34 C 38.207031 34 40 32.207031 40 30 L 40 26 C 40 23.792969 38.207031 22 36 22 Z M 38 30 C 38 31.101562 37.101562 32 36 32 L 32 32 L 32 24 L 36 24 C 37.101562 24 38 24.898438 38 26 Z M 32 49 C 31.449219 49 31 49.445312 31 50 L 31 52 C 31 52.554688 31.449219 53 32 53 C 32.550781 53 33 52.554688 33 52 L 33 50 C 33 49.445312 32.550781 49 32 49 Z M 32 15 C 32.550781 15 33 14.554688 33 14 L 33 12 C 33 11.445312 32.550781 11 32 11 C 31.449219 11 31 11.445312 31 12 L 31 14 C 31 14.554688 31.449219 15 32 15 Z M 37.625 49.128906 C 37.480469 48.59375 36.933594 48.273438 36.398438 48.421875 C 35.867188 48.5625 35.550781 49.113281 35.691406 49.644531 L 36.210938 51.578125 C 36.332031 52.023438 36.734375 52.320312 37.175781 52.320312 C 37.261719 52.320312 37.347656 52.308594 37.433594 52.285156 C 37.96875 52.140625 38.285156 51.59375 38.140625 51.058594 Z M 27.789062 12.421875 C 27.648438 11.890625 27.097656 11.570312 26.566406 11.714844 C 26.03125 11.859375 25.714844 12.40625 25.859375 12.941406 L 26.375 14.871094 C 26.496094 15.320312 26.898438 15.613281 27.339844 15.613281 C 27.425781 15.613281 27.515625 15.601562 27.601562 15.578125 C 28.132812 15.4375 28.449219 14.890625 28.308594 14.355469 Z M 23.5 46.722656 C 23.023438 46.445312 22.410156 46.609375 22.132812 47.089844 L 21.132812 48.820312 C 20.859375 49.300781 21.019531 49.910156 21.5 50.1875 C 21.65625 50.277344 21.828125 50.320312 22 50.320312 C 22.34375 50.320312 22.679688 50.140625 22.867188 49.820312 L 23.867188 48.089844 C 24.140625 47.609375 23.980469 47 23.5 46.722656 Z M 40.5 17.277344 C 40.65625 17.367188 40.828125 17.410156 41 17.410156 C 41.34375 17.410156 41.679688 17.230469 41.867188 16.910156 L 42.867188 15.179688 C 43.140625 14.699219 42.980469 14.089844 42.5 13.8125 C 42.019531 13.539062 41.410156 13.699219 41.132812 14.179688 L 40.132812 15.910156 C 39.859375 16.390625 40.019531 17 40.5 17.277344 Z M 41.867188 47.089844 C 41.589844 46.609375 40.976562 46.445312 40.5 46.722656 C 40.019531 47 39.859375 47.609375 40.132812 48.089844 L 41.132812 49.820312 C 41.320312 50.140625 41.65625 50.320312 42 50.320312 C 42.171875 50.320312 42.34375 50.277344 42.5 50.1875 C 42.980469 49.910156 43.140625 49.296875 42.867188 48.820312 Z M 22.132812 16.910156 C 22.320312 17.230469 22.65625 17.410156 23 17.410156 C 23.171875 17.410156 23.34375 17.367188 23.5 17.277344 C 23.980469 17 24.140625 16.390625 23.867188 15.910156 L 22.867188 14.179688 C 22.589844 13.699219 21.976562 13.535156 21.5 13.8125 C 21.019531 14.089844 20.859375 14.703125 21.132812 15.179688 Z M 27.601562 48.421875 C 27.066406 48.277344 26.519531 48.59375 26.375 49.128906 L 25.855469 51.058594 C 25.714844 51.59375 26.03125 52.140625 26.5625 52.285156 C 26.652344 52.308594 26.738281 52.320312 26.824219 52.320312 C 27.265625 52.320312 27.667969 52.023438 27.789062 51.578125 L 28.304688 49.644531 C 28.449219 49.113281 28.132812 48.5625 27.601562 48.421875 Z M 36.398438 15.578125 C 36.488281 15.601562 36.574219 15.613281 36.660156 15.613281 C 37.101562 15.613281 37.503906 15.320312 37.625 14.871094 L 38.140625 12.941406 C 38.285156 12.40625 37.96875 11.859375 37.433594 11.714844 C 36.902344 11.570312 36.351562 11.886719 36.210938 12.421875 L 35.691406 14.355469 C 35.550781 14.886719 35.867188 15.4375 36.398438 15.578125 Z M 36.398438 15.578125 "/>
</g>
</svg>
