<?xml version="1.0" encoding="UTF-8"?>
<svg xmlns="http://www.w3.org/2000/svg" xmlns:xlink="http://www.w3.org/1999/xlink" viewBox="0 0 64 64" width="64px" height="64px">
<g id="surface129391361">
<path style=" stroke:none;fill-rule:nonzero;fill:rgb(96.862745%,87.058824%,97.647059%);fill-opacity:1;" d="M 61 32 C 61 48.015625 48.015625 61 32 61 C 15.984375 61 3 48.015625 3 32 C 3 15.984375 15.984375 3 32 3 C 48.015625 3 61 15.984375 61 32 Z M 61 32 "/>
<path style=" stroke:none;fill-rule:nonzero;fill:rgb(61.56863%,42.745098%,53.333336%);fill-opacity:1;" d="M 42.488281 26.011719 L 38.054688 26.644531 C 38.054688 26.644531 38.726562 20.574219 31.347656 20.574219 C 27.59375 20.574219 26.167969 23.003906 26.167969 24.835938 C 26.167969 27.074219 28.089844 28.128906 34.085938 29.515625 C 40.078125 30.902344 43 33.308594 43 37.554688 C 43 41.804688 40.109375 46 32.316406 46 C 25.277344 46 22.144531 42.679688 21 36.449219 C 23.449219 36.082031 25.613281 35.742188 25.613281 35.742188 C 25.613281 35.742188 24.835938 42.605469 32.289062 42.605469 C 35.675781 42.605469 38.726562 41.546875 38.726562 38.09375 C 38.726562 34.640625 35.621094 33.960938 31.816406 33.222656 C 28.011719 32.488281 22.042969 31.042969 22.042969 24.898438 C 22.042969 19.367188 27.570312 17 31.296875 17 C 39.921875 17 42.488281 21.867188 42.488281 26.011719 Z M 42.488281 26.011719 "/>
<path style=" stroke:none;fill-rule:nonzero;fill:rgb(61.56863%,42.745098%,53.333336%);fill-opacity:1;" d="M 32 3 C 15.984375 3 3 15.984375 3 32 C 3 48.015625 15.984375 61 32 61 C 48.015625 61 61 48.015625 61 32 C 61 15.984375 48.015625 3 32 3 Z M 32 59 C 17.089844 59 5 46.910156 5 32 C 5 17.089844 17.089844 5 32 5 C 46.910156 5 59 17.089844 59 32 C 59 46.910156 46.910156 59 32 59 Z M 32 59 "/>
<path style=" stroke:none;fill-rule:nonzero;fill:rgb(61.56863%,42.745098%,53.333336%);fill-opacity:1;" d="M 32 52.347656 C 31.492188 52.347656 31.085938 52.757812 31.085938 53.261719 L 31.085938 55.085938 C 31.085938 55.589844 31.492188 56 32 56 C 32.503906 56 32.910156 55.589844 32.910156 55.085938 L 32.910156 53.261719 C 32.910156 52.757812 32.503906 52.347656 32 52.347656 Z M 37.488281 52.417969 C 37.359375 51.929688 36.859375 51.640625 36.371094 51.773438 C 35.882812 51.902344 35.59375 52.402344 35.722656 52.890625 L 36.195312 54.65625 C 36.304688 55.0625 36.675781 55.332031 37.078125 55.332031 C 37.15625 55.332031 37.234375 55.320312 37.316406 55.300781 C 37.800781 55.167969 38.089844 54.667969 37.960938 54.179688 Z M 23.554688 50.085938 C 23.117188 49.832031 22.558594 49.980469 22.304688 50.417969 L 21.394531 52 C 21.140625 52.4375 21.289062 52.996094 21.726562 53.246094 C 21.871094 53.328125 22.027344 53.367188 22.183594 53.367188 C 22.5 53.367188 22.804688 53.207031 22.976562 52.910156 L 23.886719 51.332031 C 24.140625 50.894531 23.988281 50.335938 23.554688 50.085938 Z M 41.691406 50.417969 C 41.4375 49.980469 40.878906 49.832031 40.445312 50.085938 C 40.007812 50.335938 39.859375 50.894531 40.109375 51.332031 L 41.023438 52.914062 C 41.195312 53.207031 41.5 53.371094 41.816406 53.371094 C 41.972656 53.371094 42.128906 53.332031 42.273438 53.246094 C 42.710938 52.996094 42.859375 52.4375 42.605469 52 Z M 27.628906 51.773438 C 27.140625 51.640625 26.640625 51.929688 26.507812 52.417969 L 26.035156 54.183594 C 25.902344 54.671875 26.195312 55.171875 26.679688 55.300781 C 26.761719 55.324219 26.839844 55.335938 26.917969 55.335938 C 27.320312 55.335938 27.691406 55.066406 27.800781 54.65625 L 28.273438 52.894531 C 28.402344 52.402344 28.113281 51.902344 27.628906 51.773438 Z M 27.628906 51.773438 "/>
</g>
</svg>
