<svg xmlns="http://www.w3.org/2000/svg"  viewBox="0 0 64 64" width="64px" height="64px"><path fill="#cda1a7" d="M58.13,50.93,6.6,51s.33-2.93,2.4-3.67A5.52,5.52,0,0,1,9.45,46a4.3,4.3,0,0,1,5.22-2.47s3.06-2.66,5.53-2.06c0,0,2.4-4.6,6-4.47,0,0,1.47-4.6,5.53-1.67,0,0,4.87-6.13,8.8,1.74,0,0,6.34-.2,6.34,5.6,0,0,6-2,9.44,3.33A13.91,13.91,0,0,1,58.13,50.93Z"/><path fill="#c4939c" d="M58.13,50.93,6.6,51s.33-2.93,2.4-3.67v0A1.62,1.62,0,0,1,10.61,46H55.36a1.63,1.63,0,0,1,1.46.88A15.16,15.16,0,0,1,58.13,50.93Z"/><path fill="#72caaf" d="M28.78,21.87s-8.43,1.35-12.75-3S13.16,6.08,13.16,6.08s8.43-1.35,12.75,3S28.78,21.87,28.78,21.87Z"/><path fill="#5dbc9d" d="M16.06,9.88A1,1,0,0,1,17,9c1.88-.18,6.66-.37,10.21,1.76a8.72,8.72,0,0,0-1.26-1.65c-4.31-4.36-12.75-3-12.75-3S11.72,14.5,16,18.86a8.77,8.77,0,0,0,1.74,1.35C15.62,16.63,15.86,11.77,16.06,9.88Z"/><path fill="#72caaf" d="M51,17.93s-1.53,5.5-5.47,7-8.8-1.43-8.8-1.43,1.53-5.5,5.47-7S51,17.93,51,17.93Z"/><path fill="#5dbc9d" d="M42.2,16.5a6.24,6.24,0,0,0-1.11.59,12.56,12.56,0,0,1,6.13,1.43,1,1,0,0,1,.5,1.25,11.88,11.88,0,0,1-4.07,5.63A6.5,6.5,0,0,0,45.53,25c3.94-1.55,5.47-7,5.47-7S46.14,15,42.2,16.5Z"/><path fill="#8d6c9f" d="M19.56 10.88a1 1 0 1 0-1.12 1.66c.63.42 1.23.86 1.81 1.31a1 1 0 1 0 1.23-1.58C20.87 11.79 20.22 11.33 19.56 10.88zM43 44.05a1 1 0 0 0-1 1v2a1 1 0 0 0 2 0v-2A1 1 0 0 0 43 44.05zM48 44.05a1 1 0 0 0-1 1v2a1 1 0 0 0 2 0v-2A1 1 0 0 0 48 44.05zM53 44.05a1 1 0 0 0-1 1v2a1 1 0 0 0 2 0v-2A1 1 0 0 0 53 44.05zM18 44.05a1 1 0 0 0-1 1v2a1 1 0 0 0 2 0v-2A1 1 0 0 0 18 44.05zM23 44.05a1 1 0 0 0-1 1v2a1 1 0 0 0 2 0v-2A1 1 0 0 0 23 44.05zM28 44.05a1 1 0 0 0-1 1v2a1 1 0 0 0 2 0v-2A1 1 0 0 0 28 44.05zM33 44.05a1 1 0 0 0-1 1v2a1 1 0 0 0 2 0v-2A1 1 0 0 0 33 44.05zM38 44.05a1 1 0 0 0-1 1v2a1 1 0 0 0 2 0v-2A1 1 0 0 0 38 44.05z"/><path fill="#8d6c9f" d="M61,50H59a9.46,9.46,0,0,0-11.3-8.82,5.64,5.64,0,0,0-5.59-5,5.15,5.15,0,0,0-.75.06,5.59,5.59,0,0,0-9.38-2.51v-.66a10.15,10.15,0,0,1,4.48-8.55,14.54,14.54,0,0,0,6.6,1.9,7.79,7.79,0,0,0,2.87-.52c4.35-1.71,6-7.46,6.07-7.71l.2-.73-.64-.39c-.22-.13-5.34-3.23-9.69-1.51-3.42,1.34-5.16,5.17-5.79,6.87a13.15,13.15,0,0,0-4.72,4.91,24.36,24.36,0,0,0-1.62-4.93l.07-.39c.06-.36,1.47-9-3.15-13.65S13.37,5,13,5.09l-.71.11-.12.71c-.06.36-1.47,9,3.15,13.65,2.92,2.95,7.43,3.51,10.45,3.51.78,0,1.46,0,2-.08a23.46,23.46,0,0,1,2.18,10.09v.1a4.07,4.07,0,0,0-4.71,3.07,7.19,7.19,0,0,0-5.6,4.07,8.22,8.22,0,0,0-5.34,2.25,5,5,0,0,0-1.21-.16h0a5,5,0,0,0-3.69,1.4,4.63,4.63,0,0,0-1.37,3A5.13,5.13,0,0,0,5.74,50H3a1,1,0,0,0,0,2H61a1,1,0,0,0,0-2ZM42.57,17.43c2.61-1,5.83.29,7.22,1-.54,1.45-2,4.6-4.62,5.63-2.32.91-5.11,0-6.68-.73A15.78,15.78,0,0,1,42.18,22a1,1,0,0,0-.36-2,17,17,0,0,0-2.9.91A7.79,7.79,0,0,1,42.57,17.43Zm-25.82.72C13.55,14.92,13.84,9,14.05,7,16.12,6.79,22,6.57,25.2,9.8c2.55,2.58,2.88,6.85,2.8,9.52a26.1,26.1,0,0,0-2.24-3q-.4-.47-.84-.93a1,1,0,1,0-1.45,1.38q.41.43.78.86A23.87,23.87,0,0,1,26.74,21C24.15,21.15,19.48,20.91,16.75,18.15ZM9.42,48.29a1,1,0,0,0,.52-1.16,1,1,0,0,0,.06-.28,2.67,2.67,0,0,1,.78-1.62,2.77,2.77,0,0,1,1.4-.72,1,1,0,0,0-.18.54v2a1,1,0,0,0,2,0v-2a1,1,0,0,0-.17-.52,3,3,0,0,1,.31.08l.12,0,.12,0a1,1,0,0,0,1-.3,6.16,6.16,0,0,1,4.78-2h.13a1,1,0,0,0,1-.67,5.18,5.18,0,0,1,4.88-3.47,1,1,0,0,0,1-1A2.08,2.08,0,0,1,31,36.09a.94.94,0,0,0,.88.47,1,1,0,0,0,.85-.53,3.61,3.61,0,0,1,6.81,1.51,1,1,0,0,0,1.34.89,3.56,3.56,0,0,1,1.23-.23,3.64,3.64,0,0,1,3.63,3.63,2.7,2.7,0,0,1,0,.37l0,.12a.92.92,0,0,0,0,.09s0,0,0,.05a1,1,0,0,0,0,.3s0,0,0,0a1,1,0,0,0,.1.17l0,.08a1,1,0,0,0,1.12.35A7.5,7.5,0,0,1,57,50H7.83A3.12,3.12,0,0,1,9.42,48.29Z"/></svg>