<svg xmlns="http://www.w3.org/2000/svg"  viewBox="0 0 64 64" width="64px" height="64px"><path fill="#85cbf8" d="M11,4.1h42c3.3,0,6,2.7,6,6v42c0,3.3-2.7,6-6,6H11c-3.3,0-6-2.7-6-6v-42C5,6.7,7.7,4.1,11,4.1z"/><path fill="#ace3ff" d="M9,5h46c2.2,0,4,1.8,4,4l0,0c0,1.7-1.3,3-3,3H8c-1.7,0-3-1.3-3-3l0,0C5,6.8,6.8,5,9,5z"/><path fill="#8d6c9f" d="M53,4H11c-3.9,0-7,3.1-7,7v42c0,3.9,3.1,7,7,7h42c3.9,0,7-3.1,7-7V11C60,7.1,56.9,4,53,4z M58,53 c0,2.8-2.2,5-5,5H11c-2.8,0-5-2.2-5-5V11c0-2.8,2.2-5,5-5h42c2.8,0,5,2.2,5,5V53z"/><path fill="#8d6c9f" d="M14 10c-.6 0-1 .4-1 1v2c0 .6.4 1 1 1s1-.4 1-1v-2C15 10.4 14.6 10 14 10zM9 10c-.6 0-1 .4-1 1v2c0 .6.4 1 1 1s1-.4 1-1v-2C10 10.4 9.6 10 9 10zM29 14c.6 0 1-.4 1-1v-2c0-.6-.4-1-1-1s-1 .4-1 1v2C28 13.6 28.4 14 29 14zM34 14c.6 0 1-.4 1-1v-2c0-.6-.4-1-1-1s-1 .4-1 1v2C33 13.6 33.4 14 34 14zM40 11c0-.6-.4-1-1-1s-1 .4-1 1v2c0 .6.4 1 1 1s1-.4 1-1V11zM44 14c.6 0 1-.4 1-1v-2c0-.6-.4-1-1-1s-1 .4-1 1v2C43 13.6 43.4 14 44 14zM49 10c-.6 0-1 .4-1 1v2c0 .6.4 1 1 1s1-.4 1-1v-2C50 10.4 49.6 10 49 10zM54 10c-.6 0-1 .4-1 1v2c0 .6.4 1 1 1s1-.4 1-1v-2C55 10.4 54.6 10 54 10zM19 14c.6 0 1-.4 1-1v-2c0-.6-.4-1-1-1s-1 .4-1 1v2C18 13.6 18.4 14 19 14zM24 14c.6 0 1-.4 1-1v-2c0-.6-.4-1-1-1s-1 .4-1 1v2C23 13.6 23.4 14 24 14z"/><path fill="#fff7f0" d="M51 40h-7V25c0-.6-.4-1-1-1s-1 .4-1 1v16c0 .6.4 1 1 1h8c.6 0 1-.4 1-1S51.6 40 51 40zM33 24c-2.8 0-5 2.2-5 5v8c0 2.8 2.2 5 5 5 .4 0 .8 0 1.1-.1.4 1.3 1.5 2.1 2.9 2.1.6 0 1-.4 1-1s-.4-1-1-1-1-.4-1-1l0 0c1.3-.9 2-2.4 2-4v-8C38 26.2 35.8 24 33 24zM36 37c0 1.7-1.3 3-3 3-1.7 0-3-1.3-3-3v-8c0-1.7 1.3-3 3-3 1.7 0 3 1.3 3 3V37zM20 24h-1.3c-2.6 0-4.7 2.1-4.7 4.7 0 1.8 1 3.4 2.6 4.2l3.9 2c1.3.7 1.8 2.4 1.1 3.7-.5.8-1.3 1.4-2.3 1.4H18c-1.1 0-2-.9-2-2v-1c0-.6-.4-1-1-1s-1 .4-1 1v1c0 2.2 1.8 4 4 4h1.3c2.6 0 4.7-2.1 4.7-4.7 0-1.8-1-3.4-2.6-4.2l-3.9-2c-1.3-.7-1.8-2.4-1.1-3.7.5-.8 1.3-1.4 2.3-1.4H20c1.1 0 2 .9 2 2v1c0 .6.4 1 1 1s1-.4 1-1v-1C24 25.8 22.2 24 20 24z"/></svg>