<?xml version="1.0" encoding="UTF-8"?>
<svg xmlns="http://www.w3.org/2000/svg" xmlns:xlink="http://www.w3.org/1999/xlink" viewBox="0 0 64 64" width="64px" height="64px">
<g id="surface136234821">
<path style=" stroke:none;fill-rule:nonzero;fill:rgb(100%,92.156863%,60.784316%);fill-opacity:1;" d="M 33.5 10 C 19.417969 10 8 21.417969 8 35.5 C 8 49.582031 19.417969 61 33.5 61 C 47.582031 61 59 49.582031 59 35.5 C 59 21.417969 47.582031 10 33.5 10 Z M 33.5 10 "/>
<path style=" stroke:none;fill-rule:nonzero;fill:rgb(69.01961%,92.941177%,80.000001%);fill-opacity:1;" d="M 11.5 24 C 25.582031 24 37 35.417969 37 49.5 C 37 53.632812 36.015625 57.53125 34.269531 60.980469 C 34.011719 60.988281 33.757812 61 33.5 61 C 19.417969 61 8 49.582031 8 35.5 C 8 31.375 8.984375 27.480469 10.726562 24.03125 C 10.984375 24.027344 11.238281 24 11.5 24 Z M 11.5 24 "/>
<path style=" stroke:none;fill-rule:nonzero;fill:rgb(100%,73.333335%,86.666667%);fill-opacity:1;" d="M 11.976562 22.558594 C 12.730469 21.285156 13.574219 20.101562 14.5 19.011719 C 22.386719 9.714844 36.050781 7.164062 46.902344 13.578125 C 49.085938 14.867188 51.007812 16.433594 52.644531 18.207031 C 53.671875 19.316406 54.585938 20.507812 55.386719 21.757812 C 55.261719 21.984375 55.15625 22.21875 55.023438 22.441406 C 47.859375 34.566406 32.222656 38.589844 20.097656 31.421875 C 16.539062 29.320312 13.683594 26.488281 11.601562 23.230469 C 11.726562 23.007812 11.847656 22.78125 11.976562 22.558594 "/>
<path style=" stroke:none;fill-rule:nonzero;fill:rgb(48.235294%,74.509805%,92.156863%);fill-opacity:1;" d="M 50 46 C 50 39 43.417969 37 39 37 C 38.683594 37 36.132812 36.410156 35.5 36.417969 C 27.832031 36.5 34.667969 45.5 26 44 C 21 41 19 37 19 37 C 17 33 11.445312 32.183594 14 39 C 17 47 25 54 32 55 C 40.167969 56.167969 50 53.5625 50 46 Z M 50 46 "/>
<path style=" stroke:none;fill-rule:nonzero;fill:rgb(36.078432%,28.235295%,40.784314%);fill-opacity:1;" d="M 33.5 62 C 18.886719 62 7 50.113281 7 35.5 C 7 20.886719 18.886719 9 33.5 9 C 48.113281 9 60 20.886719 60 35.5 C 60 50.113281 48.113281 62 33.5 62 Z M 33.5 11 C 19.992188 11 9 21.992188 9 35.5 C 9 49.011719 19.992188 60 33.5 60 C 47.011719 60 58 49.011719 58 35.5 C 58 21.992188 47.011719 11 33.5 11 Z M 33.5 11 "/>
<path style=" stroke:none;fill-rule:nonzero;fill:rgb(36.078432%,28.235295%,40.784314%);fill-opacity:1;" d="M 24.265625 35.5 C 23.851562 36.21875 24.292969 37.246094 25.25 37.800781 C 26.207031 38.351562 27.316406 38.21875 27.730469 37.5 C 28.144531 36.78125 27.707031 35.753906 26.75 35.203125 C 25.792969 34.648438 24.679688 34.78125 24.265625 35.5 Z M 24.265625 35.5 "/>
<path style=" stroke:none;fill-rule:nonzero;fill:rgb(100%,97.254902%,93.333334%);fill-opacity:1;" d="M 5 3 C 12 12 23.953125 25.859375 38 39 C 39 38 41 36 41 36 C 28 22 15 10 6 2 Z M 5 3 "/>
<path style=" stroke:none;fill-rule:nonzero;fill:rgb(36.078432%,28.235295%,40.784314%);fill-opacity:1;" d="M 38 40 C 37.753906 40 37.511719 39.910156 37.316406 39.730469 C 20.238281 23.757812 7.660156 8.046875 4.210938 3.613281 C 3.898438 3.214844 3.9375 2.648438 4.292969 2.292969 L 5.292969 1.292969 C 5.667969 0.917969 6.269531 0.902344 6.664062 1.253906 C 19.71875 12.855469 31.515625 24.316406 41.734375 35.320312 C 42.097656 35.714844 42.089844 36.328125 41.707031 36.707031 L 38.707031 39.707031 C 38.511719 39.902344 38.257812 40 38 40 Z M 7.863281 5.003906 C 12.886719 11.261719 23.832031 24.285156 37.976562 37.605469 L 39.609375 35.976562 C 30.257812 25.949219 19.589844 15.546875 7.863281 5.003906 Z M 7.863281 5.003906 "/>
<path style=" stroke:none;fill-rule:nonzero;fill:rgb(80.784315%,85.09804%,92.941177%);fill-opacity:1;" d="M 27.863281 29.058594 C 31.078125 32.359375 34.472656 35.703125 38 39 C 39 38 41 36 41 36 C 37.699219 32.445312 34.398438 29.019531 31.164062 25.757812 Z M 27.863281 29.058594 "/>
<path style=" stroke:none;fill-rule:nonzero;fill:rgb(36.078432%,28.235295%,40.784314%);fill-opacity:1;" d="M 38 40 C 37.753906 40 37.511719 39.910156 37.316406 39.730469 C 33.953125 36.585938 30.53125 33.226562 27.148438 29.753906 C 26.765625 29.363281 26.769531 28.734375 27.15625 28.347656 L 30.457031 25.050781 C 30.644531 24.859375 30.875 24.753906 31.164062 24.757812 C 31.429688 24.757812 31.6875 24.863281 31.871094 25.050781 C 35.300781 28.511719 38.617188 31.964844 41.730469 35.320312 C 42.097656 35.714844 42.085938 36.328125 41.707031 36.707031 L 38.707031 39.707031 C 38.511719 39.902344 38.257812 40 38 40 Z M 29.269531 29.066406 C 32.171875 32.023438 35.09375 34.890625 37.976562 37.605469 L 39.609375 35.976562 C 36.921875 33.089844 34.085938 30.136719 31.160156 27.175781 Z M 17.148438 45.125 C 16.820312 45.125 16.5 44.964844 16.308594 44.671875 C 15.480469 43.402344 14.796875 42.042969 14.273438 40.632812 C 14.082031 40.113281 14.347656 39.539062 14.863281 39.347656 C 15.378906 39.152344 15.957031 39.417969 16.148438 39.9375 C 16.621094 41.210938 17.238281 42.4375 17.984375 43.582031 C 18.285156 44.046875 18.152344 44.664062 17.691406 44.964844 C 17.523438 45.074219 17.335938 45.125 17.148438 45.125 Z M 32.285156 18.039062 C 31.761719 18.039062 31.324219 17.632812 31.289062 17.105469 L 31.160156 15.109375 C 31.125 14.558594 31.542969 14.082031 32.09375 14.046875 C 32.660156 14.011719 33.121094 14.429688 33.15625 14.980469 L 33.285156 16.976562 C 33.320312 17.527344 32.902344 18.003906 32.351562 18.039062 C 32.328125 18.039062 32.308594 18.039062 32.285156 18.039062 Z M 37.398438 18.417969 C 37.328125 18.417969 37.257812 18.410156 37.1875 18.398438 C 36.648438 18.28125 36.300781 17.75 36.417969 17.210938 L 36.835938 15.253906 C 36.953125 14.714844 37.480469 14.367188 38.023438 14.484375 C 38.5625 14.601562 38.910156 15.132812 38.792969 15.671875 L 38.375 17.628906 C 38.273438 18.097656 37.859375 18.417969 37.398438 18.417969 Z M 42.203125 20.179688 C 42.042969 20.179688 41.882812 20.140625 41.730469 20.058594 C 41.242188 19.800781 41.058594 19.191406 41.320312 18.707031 L 42.265625 16.941406 C 42.523438 16.453125 43.128906 16.273438 43.617188 16.53125 C 44.105469 16.792969 44.289062 17.398438 44.027344 17.886719 L 43.085938 19.648438 C 42.902344 19.984375 42.558594 20.179688 42.203125 20.179688 Z M 46.34375 23.195312 C 46.09375 23.195312 45.839844 23.101562 45.648438 22.914062 C 45.25 22.53125 45.238281 21.898438 45.621094 21.5 L 47.011719 20.0625 C 47.398438 19.664062 48.03125 19.652344 48.425781 20.035156 C 48.824219 20.421875 48.835938 21.054688 48.453125 21.449219 L 47.0625 22.890625 C 46.863281 23.09375 46.605469 23.195312 46.34375 23.195312 Z M 46.34375 23.195312 "/>
<path style=" stroke:none;fill-rule:nonzero;fill:rgb(36.078432%,28.235295%,40.784314%);fill-opacity:1;" d="M 45 48 C 45 48 45 45 43 44 C 41 43 38.832031 42.957031 38 39 C 40 37 41 36 41 36 C 41 36 45 38 46 41 C 47 44 46.25 47.5 45 48 Z M 45 48 "/>
<path style=" stroke:none;fill-rule:nonzero;fill:rgb(36.078432%,28.235295%,40.784314%);fill-opacity:1;" d="M 45 49 C 44.804688 49 44.605469 48.941406 44.4375 48.828125 C 44.164062 48.640625 44 48.335938 44 48.003906 C 44 47.957031 43.9375 45.589844 42.554688 44.894531 C 42.203125 44.71875 41.847656 44.578125 41.496094 44.433594 C 39.765625 43.738281 37.808594 42.945312 37.019531 39.207031 C 36.953125 38.875 37.054688 38.53125 37.292969 38.292969 L 40.292969 35.292969 C 40.597656 34.984375 41.0625 34.914062 41.445312 35.105469 C 41.625 35.195312 45.828125 37.328125 46.945312 40.683594 C 48.078125 44.074219 47.296875 48.15625 45.371094 48.929688 C 45.253906 48.976562 45.125 49 45 49 Z M 46 48 L 46.011719 48 Z M 39.101562 39.3125 C 39.703125 41.554688 40.785156 41.992188 42.246094 42.582031 C 42.644531 42.742188 43.050781 42.90625 43.449219 43.105469 C 44.402344 43.585938 45 44.378906 45.375 45.191406 C 45.542969 44.132812 45.527344 42.742188 45.054688 41.316406 C 44.457031 39.527344 42.417969 37.992188 41.175781 37.242188 Z M 39.101562 39.3125 "/>
<path style=" stroke:none;fill-rule:nonzero;fill:rgb(36.078432%,28.235295%,40.784314%);fill-opacity:1;" d="M 28.042969 45.199219 C 26.855469 45.199219 25.527344 44.863281 24.234375 44.203125 C 20.804688 42.457031 17.132812 36.535156 16.125 33.851562 C 15.933594 33.332031 16.195312 32.757812 16.710938 32.5625 C 17.230469 32.371094 17.804688 32.632812 18 33.148438 C 18.917969 35.601562 22.332031 40.988281 25.140625 42.421875 C 27.050781 43.394531 28.699219 43.34375 29.488281 42.859375 C 29.832031 42.648438 30 42.367188 30 42 C 30 38.890625 32.0625 36.769531 35.804688 36.019531 C 36.351562 35.90625 36.871094 36.261719 36.980469 36.804688 C 37.089844 37.347656 36.738281 37.871094 36.195312 37.980469 C 33.410156 38.535156 32 39.890625 32 42 C 32 43.058594 31.464844 43.992188 30.53125 44.566406 C 29.839844 44.988281 28.984375 45.199219 28.042969 45.199219 Z M 28.042969 45.199219 "/>
<path style=" stroke:none;fill-rule:nonzero;fill:rgb(36.078432%,28.235295%,40.784314%);fill-opacity:1;" d="M 35.65625 55.820312 C 29.128906 55.820312 23.648438 53.242188 18.964844 47.949219 C 18.597656 47.539062 18.636719 46.90625 19.046875 46.539062 C 19.460938 46.171875 20.09375 46.214844 20.460938 46.625 C 23.273438 49.800781 27.929688 53.976562 36.226562 53.8125 C 40.871094 53.902344 44.425781 52.789062 46.636719 50.617188 C 48.769531 48.519531 49 46.121094 49 45.1875 C 49 44.636719 49.445312 44.1875 50 44.1875 C 50.554688 44.1875 51 44.636719 51 45.1875 C 51 47.691406 49.921875 50.191406 48.035156 52.042969 C 46.222656 53.824219 42.742188 55.925781 36.230469 55.8125 C 36.039062 55.816406 35.847656 55.820312 35.65625 55.820312 Z M 35.65625 55.820312 "/>
</g>
</svg>
