<svg xmlns="http://www.w3.org/2000/svg"  viewBox="0 0 64 64" width="64px" height="64px"><polygon fill="#b5c4e0" points="38,62 28,62 31,41 36,38"/><path fill="#85cbf8" d="M14.895,52.673C17.747,54.637,28.097,48.008,37,37l-13-9 C15.871,39.573,12.035,50.706,14.895,52.673z"/><path fill="#85cbf8" d="M38,23l-1,14c14.131,0.936,24.649-1.416,24.992-4.764C62.335,28.89,52.038,24.86,38,23z"/><path fill="#85cbf8" d="M20.13,3.144C16.917,4.527,18.451,15.101,24,28l14-5C31.58,10.512,23.337,1.767,20.13,3.144z"/><path fill="#e3f2ff" d="M20.13,3.144C20,3,31,25.5,31,25.5l7-2.5C31.58,10.512,23.337,1.767,20.13,3.144z"/><path fill="#7bbeeb" d="M14.895,52.673C17.747,54.637,28.097,48.008,37,37l-7-4.846C30,32.154,15,53,14.895,52.673z"/><circle cx="32.5" cy="29.5" r="8.5" fill="#c2cde7"/><path fill="#acb7d0" d="M32.5,26c-1.933,0-3.5,1.567-3.5,3.5s1.567,3.5,3.5,3.5s3.5-1.567,3.5-3.5S34.433,26,32.5,26z"/><path fill="#8d6c9f" d="M28.001,62c-0.042,0-0.083-0.003-0.125-0.008c-0.548-0.068-0.937-0.568-0.868-1.116l2-16 c0.068-0.548,0.57-0.933,1.116-0.868c0.548,0.068,0.937,0.568,0.868,1.116l-2,16C28.929,61.63,28.498,62,28.001,62z M37.999,62 c-0.513,0-0.95-0.393-0.995-0.913l-2-23c-0.048-0.551,0.359-1.035,0.91-1.083c0.551-0.056,1.035,0.36,1.083,0.909l2,23 c0.048,0.551-0.359,1.035-0.91,1.083C38.057,61.999,38.028,62,37.999,62z"/><path fill="#8d6c9f" d="M32.5,34c-2.481,0-4.5-2.019-4.5-4.5s2.019-4.5,4.5-4.5s4.5,2.019,4.5,4.5S34.981,34,32.5,34z M32.5,27c-1.378,0-2.5,1.121-2.5,2.5s1.122,2.5,2.5,2.5s2.5-1.121,2.5-2.5S33.878,27,32.5,27z"/><path fill="#8d6c9f" d="M16.122,53.983c-0.711,0-1.316-0.157-1.795-0.487c-0.666-0.457-1.095-1.198-1.275-2.201 c-0.784-4.358,3.238-13.935,9.811-23.412c-4.701-11.1-7.646-23.713-3.128-25.657c4.413-1.885,13.011,8.538,18.915,19.853 c12.159,1.672,24.82,5.557,24.337,10.261c-0.486,4.75-13.127,6.448-25.536,5.691C29.823,47.332,20.743,53.983,16.122,53.983z M24.808,28.589c-7.139,10.17-10.372,19.105-9.788,22.352c0.057,0.315,0.179,0.729,0.441,0.908 c1.814,1.251,11.312-3.8,20.753-15.468c0.013-0.017,0.027-0.033,0.041-0.049c0.099-0.11,0.218-0.194,0.348-0.25 c0.122-0.053,0.231-0.061,0.399-0.082c0.026,0,0.052,0.001,0.078,0.003c15.553,1.026,23.718-1.925,23.917-3.868 c0.21-2.048-7.9-6.124-23.114-8.142c-0.027-0.003-0.055-0.008-0.083-0.014c-0.138-0.027-0.263-0.083-0.373-0.159 c-0.112-0.078-0.21-0.181-0.285-0.305c-0.014-0.023-0.027-0.047-0.039-0.071C30.393,10.394,22.689,3.141,20.524,4.063 c-1.976,0.851-1.551,9.717,4.387,23.525c0.015,0.032,0.027,0.065,0.039,0.1c0.045,0.137,0.059,0.277,0.045,0.413 c-0.014,0.138-0.057,0.273-0.129,0.398C24.849,28.53,24.829,28.561,24.808,28.589z"/><g><path fill="#8d6c9f" d="M32.5,39c-5.238,0-9.5-4.262-9.5-9.5s4.262-9.5,9.5-9.5c5.027,0,9.193,3.928,9.484,8.942 c0.032,0.551-0.389,1.024-0.94,1.056c-0.559,0.025-1.024-0.389-1.057-0.94C39.757,25.101,36.469,22,32.5,22 c-4.136,0-7.5,3.364-7.5,7.5s3.364,7.5,7.5,7.5c2.94,0,5.624-1.731,6.837-4.412c0.228-0.503,0.819-0.727,1.323-0.499 c0.503,0.228,0.727,0.82,0.499,1.323C39.623,36.807,36.224,39,32.5,39z"/></g><g><path fill="#8d6c9f" d="M12.707,17.555c-0.451,0-0.861-0.308-0.971-0.766c-0.129-0.537,0.201-1.077,0.738-1.206 l1.944-0.469c0.537-0.135,1.077,0.2,1.207,0.737s-0.201,1.077-0.738,1.206l-1.944,0.469 C12.864,17.546,12.785,17.555,12.707,17.555z"/><path fill="#8d6c9f" d="M14.17,22.731c-0.423,0-0.816-0.271-0.953-0.695c-0.168-0.526,0.122-1.089,0.648-1.257 l1.905-0.609c0.527-0.169,1.089,0.121,1.257,0.647c0.168,0.526-0.122,1.089-0.648,1.257l-1.905,0.609 C14.374,22.716,14.271,22.731,14.17,22.731z"/><path fill="#8d6c9f" d="M18.343,28.42c-0.033,0-0.067-0.002-0.102-0.005l-2.233-0.226 c-0.549-0.056-0.95-0.546-0.895-1.096c0.056-0.55,0.538-0.944,1.096-0.895l2.233,0.226c0.549,0.056,0.95,0.546,0.895,1.096 C19.285,28.036,18.85,28.42,18.343,28.42z"/><path fill="#8d6c9f" d="M15.005,33.893c-0.166,0-0.334-0.041-0.489-0.128l-1.744-0.979 c-0.481-0.271-0.653-0.88-0.382-1.361c0.27-0.482,0.88-0.653,1.362-0.383l1.744,0.979c0.481,0.271,0.653,0.88,0.382,1.361 C15.695,33.709,15.355,33.893,15.005,33.893z"/><path fill="#8d6c9f" d="M12.748,38.226c-0.145,0-0.292-0.031-0.432-0.099l-1.804-0.864 c-0.498-0.238-0.708-0.835-0.47-1.333c0.239-0.499,0.838-0.711,1.334-0.47l1.804,0.864c0.498,0.238,0.708,0.835,0.47,1.333 C13.478,38.017,13.12,38.226,12.748,38.226z"/><path fill="#8d6c9f" d="M10.827,42.693c-0.117,0-0.236-0.021-0.352-0.064l-1.872-0.704 c-0.517-0.194-0.778-0.771-0.584-1.287c0.194-0.518,0.772-0.78,1.288-0.584l1.872,0.704c0.517,0.194,0.778,0.771,0.584,1.287 C11.612,42.446,11.231,42.693,10.827,42.693z"/><path fill="#8d6c9f" d="M9.432,47.288c-0.071,0-0.143-0.008-0.214-0.023l-1.954-0.427c-0.54-0.117-0.881-0.65-0.764-1.19 c0.118-0.539,0.652-0.879,1.19-0.763l1.954,0.427c0.54,0.117,0.881,0.65,0.764,1.19C10.306,46.969,9.892,47.288,9.432,47.288z"/></g></svg>