<?xml version="1.0" encoding="UTF-8"?>
<svg xmlns="http://www.w3.org/2000/svg" xmlns:xlink="http://www.w3.org/1999/xlink" viewBox="0 0 64 64" width="64px" height="64px">
<g id="surface134861541">
<path style=" stroke:none;fill-rule:nonzero;fill:rgb(32.941177%,30.980393%,46.666667%);fill-opacity:1;" d="M 22 14.832031 C 21.449219 14.832031 21 15.28125 21 15.832031 L 21 17.832031 C 21 18.386719 21.449219 18.832031 22 18.832031 C 22.550781 18.832031 23 18.386719 23 17.832031 L 23 15.832031 C 23 15.28125 22.550781 14.832031 22 14.832031 Z M 17 14.832031 C 16.449219 14.832031 16 15.28125 16 15.832031 L 16 17.832031 C 16 18.386719 16.449219 18.832031 17 18.832031 C 17.550781 18.832031 18 18.386719 18 17.832031 L 18 15.832031 C 18 15.28125 17.550781 14.832031 17 14.832031 Z M 12 14.832031 C 11.449219 14.832031 11 15.28125 11 15.832031 L 11 17.832031 C 11 18.386719 11.449219 18.832031 12 18.832031 C 12.550781 18.832031 13 18.386719 13 17.832031 L 13 15.832031 C 13 15.28125 12.550781 14.832031 12 14.832031 Z M 52 14.832031 C 51.449219 14.832031 51 15.28125 51 15.832031 L 51 17.832031 C 51 18.386719 51.449219 18.832031 52 18.832031 C 52.550781 18.832031 53 18.386719 53 17.832031 L 53 15.832031 C 53 15.28125 52.550781 14.832031 52 14.832031 Z M 47 14.832031 C 46.449219 14.832031 46 15.28125 46 15.832031 L 46 17.832031 C 46 18.386719 46.449219 18.832031 47 18.832031 C 47.550781 18.832031 48 18.386719 48 17.832031 L 48 15.832031 C 48 15.28125 47.550781 14.832031 47 14.832031 Z M 42 14.832031 C 41.449219 14.832031 41 15.28125 41 15.832031 L 41 17.832031 C 41 18.386719 41.449219 18.832031 42 18.832031 C 42.550781 18.832031 43 18.386719 43 17.832031 L 43 15.832031 C 43 15.28125 42.550781 14.832031 42 14.832031 Z M 42 14.832031 "/>
<path style=" stroke:none;fill-rule:nonzero;fill:rgb(32.156864%,60.392159%,78.431374%);fill-opacity:1;" d="M 28 59 C 27.445312 59 27 58.554688 27 58 L 27 12 L 12 12 C 11.445312 12 11 11.554688 11 11 L 11 7 C 11 6.445312 11.445312 6 12 6 L 52 6 C 52.554688 6 53 6.445312 53 7 L 53 11 C 53 11.554688 52.554688 12 52 12 L 37 12 L 37 58 C 37 58.554688 36.554688 59 36 59 Z M 28 59 "/>
<path style=" stroke:none;fill-rule:nonzero;fill:rgb(39.215687%,73.725492%,92.941177%);fill-opacity:1;" d="M 27 11.839844 L 27 57.914062 C 29.902344 57.890625 32.25 55.535156 32.25 52.625 L 32.25 17.125 C 32.25 14.21875 29.902344 11.859375 27 11.839844 Z M 27 11.839844 "/>
<path style=" stroke:none;fill-rule:nonzero;fill:rgb(32.941177%,30.980393%,46.666667%);fill-opacity:1;" d="M 32 20 C 31.445312 20 31 19.554688 31 19 L 31 15 C 31 14.445312 31.445312 14 32 14 C 32.554688 14 33 14.445312 33 15 L 33 19 C 33 19.554688 32.554688 20 32 20 Z M 32 32 C 31.445312 32 31 31.554688 31 31 L 31 23 C 31 22.445312 31.445312 22 32 22 C 32.554688 22 33 22.445312 33 23 L 33 31 C 33 31.554688 32.554688 32 32 32 Z M 32 32 "/>
<path style=" stroke:none;fill-rule:nonzero;fill:rgb(32.941177%,30.980393%,46.666667%);fill-opacity:1;" d="M 52 7 L 52 11 L 37.5 11 C 36.671875 11 36 11.671875 36 12.5 L 36 58 L 28 58 L 28 12.5 C 28 11.671875 27.328125 11 26.5 11 L 12 11 L 12 7 L 52 7 M 52 5 L 12 5 C 10.894531 5 10 5.894531 10 7 L 10 11 C 10 12.105469 10.894531 13 12 13 L 26 13 L 26 58 C 26 59.105469 26.894531 60 28 60 L 36 60 C 37.105469 60 38 59.105469 38 58 L 38 13 L 52 13 C 53.105469 13 54 12.105469 54 11 L 54 7 C 54 5.894531 53.105469 5 52 5 Z M 52 5 "/>
</g>
</svg>
