<?xml version="1.0" encoding="UTF-8"?>
<svg xmlns="http://www.w3.org/2000/svg" xmlns:xlink="http://www.w3.org/1999/xlink" viewBox="0 0 64 64" width="64px" height="64px">
<g id="surface135848899">
<path style=" stroke:none;fill-rule:nonzero;fill:rgb(68.235296%,72.549021%,80.392158%);fill-opacity:1;" d="M 59 20.832031 C 59 21.148438 58.90625 21.441406 58.726562 21.660156 C 58.546875 21.882812 58.3125 22 58.070312 22 L 5.929688 22 C 5.546875 22 5.195312 21.707031 5.054688 21.265625 C 4.960938 20.972656 4.960938 20.65625 5.066406 20.367188 C 5.160156 20.085938 5.347656 19.863281 5.582031 19.746094 L 31.3125 7.164062 C 31.53125 7.058594 31.765625 7 32 7 C 32.234375 7 32.46875 7.058594 32.6875 7.164062 L 58.40625 19.746094 C 58.765625 19.921875 59 20.355469 59 20.832031 Z M 59 20.832031 "/>
<path style=" stroke:none;fill-rule:nonzero;fill:rgb(64.705884%,70.980394%,82.352942%);fill-opacity:1;" d="M 58.199219 21.878906 C 58.179688 21.921875 58.160156 21.960938 58.140625 21.988281 C 58.121094 22 58.089844 22 58.070312 22 L 53.898438 22 L 32 11.28125 L 10.078125 22 L 6.230469 22 C 6.171875 21.921875 6.121094 21.828125 6.070312 21.738281 C 5.589844 20.738281 6 19.550781 6.988281 19.058594 L 31.308594 7.160156 L 32 6.820312 L 32.691406 7.160156 L 57.289062 19.199219 C 57.300781 19.199219 57.300781 19.210938 57.308594 19.210938 C 58.289062 19.710938 58.691406 20.898438 58.199219 21.878906 Z M 58.199219 21.878906 "/>
<path style=" stroke:none;fill-rule:nonzero;fill:rgb(70.588237%,75.294119%,85.882354%);fill-opacity:1;" d="M 10 22 L 10 25 C 10 25.550781 10.449219 26 11 26 L 17 26 C 17.550781 26 18 25.550781 18 25 L 18 22 M 22 22 L 22 25 C 22 25.550781 22.449219 26 23 26 L 29 26 C 29.550781 26 30 25.550781 30 25 L 30 22 M 34 22 L 34 25 C 34 25.550781 34.449219 26 35 26 L 41 26 C 41.550781 26 42 25.550781 42 25 L 42 22 M 46 22 L 46 25 C 46 25.550781 46.449219 26 47 26 L 53 26 C 53.550781 26 54 25.550781 54 25 L 54 22 "/>
<path style=" stroke:none;fill-rule:nonzero;fill:rgb(68.235296%,72.549021%,80.392158%);fill-opacity:1;" d="M 56 51 L 56 48 C 56 47.449219 55.550781 47 55 47 L 9 47 C 8.449219 47 8 47.449219 8 48 L 8 51 L 6 51 C 5.449219 51 5 51.449219 5 52 L 5 57 L 59 57 L 59 52 C 59 51.449219 58.550781 51 58 51 Z M 11 26 L 17 26 L 17 47 L 11 47 Z M 47 26 L 53 26 L 53 47 L 47 47 Z M 23 26 L 29 26 L 29 47 L 23 47 Z M 35 26 L 41 26 L 41 47 L 35 47 Z M 35 26 "/>
<path style=" stroke:none;fill-rule:nonzero;fill:rgb(64.705884%,70.980394%,82.352942%);fill-opacity:1;" d="M 11 26 L 17 26 L 17 29 L 11 29 Z M 47 26 L 53 26 L 53 29 L 47 29 Z M 23 26 L 29 26 L 29 29 L 23 29 Z M 35 26 L 41 26 L 41 29 L 35 29 Z M 5 52 L 59 52 L 59 57 L 5 57 Z M 5 52 "/>
<path style=" stroke:none;fill-rule:nonzero;fill:rgb(39.215687%,29.803923%,44.313726%);fill-opacity:1;" d="M 52 51 L 48 51 C 47.449219 51 47 51.449219 47 52 C 47 52.550781 47.449219 53 48 53 L 52 53 C 52.550781 53 53 52.550781 53 52 C 53 51.449219 52.550781 51 52 51 Z M 52 51 "/>
<path style=" stroke:none;fill-rule:nonzero;fill:rgb(39.215687%,29.803923%,44.313726%);fill-opacity:1;" d="M 58 51 L 57 51 L 57 48 C 57 46.898438 56.101562 46 55 46 L 54 46 L 54 26.722656 C 54.59375 26.375 55 25.738281 55 25 L 55 23 L 58.070312 23 C 58.617188 23 59.140625 22.742188 59.507812 22.289062 C 59.824219 21.894531 60 21.375 60 20.832031 C 60 19.972656 59.546875 19.191406 58.847656 18.847656 L 33.121094 6.265625 C 32.410156 5.917969 31.589844 5.917969 30.875 6.265625 L 5.136719 18.851562 C 4.664062 19.085938 4.292969 19.523438 4.121094 20.03125 C 3.949219 20.523438 3.941406 21.070312 4.101562 21.566406 C 4.375 22.425781 5.109375 23 5.929688 23 L 9 23 L 9 25 C 9 25.738281 9.40625 26.375 10 26.722656 L 10 46 L 9 46 C 7.898438 46 7 46.898438 7 48 L 7 51 L 6 51 C 4.898438 51 4 51.898438 4 53 L 4 57 C 4 57.550781 4.449219 58 5 58 L 59 58 C 59.550781 58 60 57.550781 60 57 L 60 53 C 60 51.898438 59.101562 51 58 51 Z M 6.011719 21 C 6.015625 20.996094 6.015625 20.980469 6.007812 20.957031 C 5.988281 20.894531 5.972656 20.800781 6.019531 20.644531 L 31.75 8.0625 C 31.921875 7.980469 32.082031 7.980469 32.246094 8.0625 L 57.941406 20.628906 C 57.960938 20.648438 58 20.722656 58 20.832031 C 58 20.914062 57.984375 20.96875 57.96875 21 Z M 47 25 L 47 23 L 53 23 L 53 25 Z M 52 27 L 52 46 L 48 46 L 48 27 Z M 46 26.722656 L 46 46 L 42 46 L 42 26.722656 C 42.59375 26.375 43 25.738281 43 25 L 43 23 L 45 23 L 45 25 C 45 25.738281 45.40625 26.375 46 26.722656 Z M 35 25 L 35 23 L 41 23 L 41 25 Z M 40 27 L 40 46 L 36 46 L 36 27 Z M 34 26.722656 L 34 46 L 30 46 L 30 26.722656 C 30.59375 26.375 31 25.738281 31 25 L 31 23 L 33 23 L 33 25 C 33 25.738281 33.40625 26.375 34 26.722656 Z M 23 25 L 23 23 L 29 23 L 29 25 Z M 28 27 L 28 46 L 24 46 L 24 27 Z M 22 26.722656 L 22 46 L 18 46 L 18 26.722656 C 18.59375 26.375 19 25.738281 19 25 L 19 23 L 21 23 L 21 25 C 21 25.738281 21.40625 26.375 22 26.722656 Z M 11 25 L 11 23 L 17 23 L 17 25 Z M 16 27 L 16 46 L 12 46 L 12 27 Z M 58 56 L 6 56 L 6 53 L 44 53 C 44.550781 53 45 52.550781 45 52 C 45 51.449219 44.550781 51 44 51 L 9 51 L 9 48 L 55 48 L 55 52 C 55 52.550781 55.449219 53 56 53 L 58 53 Z M 58 56 "/>
</g>
</svg>
