<?xml version="1.0" encoding="UTF-8"?>
<svg xmlns="http://www.w3.org/2000/svg" xmlns:xlink="http://www.w3.org/1999/xlink" viewBox="0 0 64 64" width="64px" height="64px">
<g id="surface135845420">
<path style=" stroke:none;fill-rule:nonzero;fill:rgb(49.411765%,53.333336%,63.137257%);fill-opacity:1;" d="M 61 33.867188 L 61 52 C 61 53.65625 59.65625 55 58 55 L 6 55 C 4.34375 55 3 53.65625 3 52 L 3 33.46875 "/>
<path style=" stroke:none;fill-rule:nonzero;fill:rgb(55.686277%,61.960787%,74.117649%);fill-opacity:1;" d="M 54.328125 37 L 9.671875 37 C 4.882812 37 1 33.117188 1 28.328125 L 1 13 C 1 11.894531 1.894531 11 3 11 L 61 11 C 62.105469 11 63 11.894531 63 13 L 63 28.328125 C 63 33.117188 59.117188 37 54.328125 37 Z M 54.328125 37 "/>
<path style=" stroke:none;fill-rule:nonzero;fill:rgb(65.098041%,71.372551%,84.705883%);fill-opacity:1;" d="M 1 12 L 62 12 L 62 16 L 1 16 Z M 1 12 "/>
<path style=" stroke:none;fill-rule:nonzero;fill:rgb(38.039216%,29.019609%,43.529412%);fill-opacity:1;" d="M 64 13 C 64 11.347656 62.652344 10 61 10 L 3 10 C 1.347656 10 0 11.347656 0 13 L 0 28.328125 C 0 30.535156 0.75 32.566406 2 34.195312 L 2 52 C 2 54.207031 3.792969 56 6 56 L 58 56 C 60.207031 56 62 54.207031 62 52 L 62 34.195312 C 63.25 32.566406 64 30.535156 64 28.328125 Z M 58 54 L 6 54 C 4.898438 54 4 53.101562 4 52 L 4 36.144531 C 5.59375 37.308594 7.550781 38 9.671875 38 L 54.328125 38 C 56.449219 38 58.40625 37.308594 60 36.144531 L 60 52 C 60 53.101562 59.101562 54 58 54 Z M 62 28.328125 C 62 32.558594 58.558594 36 54.328125 36 L 9.671875 36 C 7.421875 36 5.402344 35.023438 4 33.476562 L 4 33.46875 L 3.992188 33.46875 C 2.757812 32.105469 2 30.308594 2 28.328125 L 2 13 C 2 12.449219 2.449219 12 3 12 L 61 12 C 61.550781 12 62 12.449219 62 13 Z M 62 28.328125 "/>
<path style=" stroke:none;fill-rule:nonzero;fill:rgb(38.039216%,29.019609%,43.529412%);fill-opacity:1;" d="M 7 14 C 6.449219 14 6 14.445312 6 15 L 6 17 C 6 17.554688 6.449219 18 7 18 C 7.550781 18 8 17.554688 8 17 L 8 15 C 8 14.445312 7.550781 14 7 14 Z M 7 14 "/>
<path style=" stroke:none;fill-rule:nonzero;fill:rgb(38.039216%,29.019609%,43.529412%);fill-opacity:1;" d="M 2 14 C 1.449219 14 1 14.445312 1 15 L 1 17 C 1 17.554688 1.449219 18 2 18 C 2.550781 18 3 17.554688 3 17 L 3 15 C 3 14.445312 2.550781 14 2 14 Z M 2 14 "/>
<path style=" stroke:none;fill-rule:nonzero;fill:rgb(38.039216%,29.019609%,43.529412%);fill-opacity:1;" d="M 12 14 C 11.449219 14 11 14.445312 11 15 L 11 17 C 11 17.554688 11.449219 18 12 18 C 12.550781 18 13 17.554688 13 17 L 13 15 C 13 14.445312 12.550781 14 12 14 Z M 12 14 "/>
<path style=" stroke:none;fill-rule:nonzero;fill:rgb(38.039216%,29.019609%,43.529412%);fill-opacity:1;" d="M 17 14 C 16.449219 14 16 14.445312 16 15 L 16 17 C 16 17.554688 16.449219 18 17 18 C 17.550781 18 18 17.554688 18 17 L 18 15 C 18 14.445312 17.550781 14 17 14 Z M 17 14 "/>
<path style=" stroke:none;fill-rule:nonzero;fill:rgb(38.039216%,29.019609%,43.529412%);fill-opacity:1;" d="M 22 14 C 21.449219 14 21 14.445312 21 15 L 21 17 C 21 17.554688 21.449219 18 22 18 C 22.550781 18 23 17.554688 23 17 L 23 15 C 23 14.445312 22.550781 14 22 14 Z M 22 14 "/>
<path style=" stroke:none;fill-rule:nonzero;fill:rgb(38.039216%,29.019609%,43.529412%);fill-opacity:1;" d="M 27 14 C 26.449219 14 26 14.445312 26 15 L 26 17 C 26 17.554688 26.449219 18 27 18 C 27.550781 18 28 17.554688 28 17 L 28 15 C 28 14.445312 27.550781 14 27 14 Z M 27 14 "/>
<path style=" stroke:none;fill-rule:nonzero;fill:rgb(38.039216%,29.019609%,43.529412%);fill-opacity:1;" d="M 32 14 C 31.449219 14 31 14.445312 31 15 L 31 17 C 31 17.554688 31.449219 18 32 18 C 32.550781 18 33 17.554688 33 17 L 33 15 C 33 14.445312 32.550781 14 32 14 Z M 32 14 "/>
<path style=" stroke:none;fill-rule:nonzero;fill:rgb(38.039216%,29.019609%,43.529412%);fill-opacity:1;" d="M 37 14 C 36.449219 14 36 14.445312 36 15 L 36 17 C 36 17.554688 36.449219 18 37 18 C 37.550781 18 38 17.554688 38 17 L 38 15 C 38 14.445312 37.550781 14 37 14 Z M 37 14 "/>
<path style=" stroke:none;fill-rule:nonzero;fill:rgb(38.039216%,29.019609%,43.529412%);fill-opacity:1;" d="M 42 14 C 41.449219 14 41 14.445312 41 15 L 41 17 C 41 17.554688 41.449219 18 42 18 C 42.550781 18 43 17.554688 43 17 L 43 15 C 43 14.445312 42.550781 14 42 14 Z M 42 14 "/>
<path style=" stroke:none;fill-rule:nonzero;fill:rgb(38.039216%,29.019609%,43.529412%);fill-opacity:1;" d="M 47 14 C 46.449219 14 46 14.445312 46 15 L 46 17 C 46 17.554688 46.449219 18 47 18 C 47.550781 18 48 17.554688 48 17 L 48 15 C 48 14.445312 47.550781 14 47 14 Z M 47 14 "/>
<path style=" stroke:none;fill-rule:nonzero;fill:rgb(38.039216%,29.019609%,43.529412%);fill-opacity:1;" d="M 52 14 C 51.449219 14 51 14.445312 51 15 L 51 17 C 51 17.554688 51.449219 18 52 18 C 52.550781 18 53 17.554688 53 17 L 53 15 C 53 14.445312 52.550781 14 52 14 Z M 52 14 "/>
<path style=" stroke:none;fill-rule:nonzero;fill:rgb(38.039216%,29.019609%,43.529412%);fill-opacity:1;" d="M 57 14 C 56.449219 14 56 14.445312 56 15 L 56 17 C 56 17.554688 56.449219 18 57 18 C 57.550781 18 58 17.554688 58 17 L 58 15 C 58 14.445312 57.550781 14 57 14 Z M 57 14 "/>
<path style=" stroke:none;fill-rule:nonzero;fill:rgb(38.039216%,29.019609%,43.529412%);fill-opacity:1;" d="M 62 14 C 61.449219 14 61 14.445312 61 15 L 61 17 C 61 17.554688 61.449219 18 62 18 C 62.550781 18 63 17.554688 63 17 L 63 15 C 63 14.445312 62.550781 14 62 14 Z M 62 14 "/>
<path style=" stroke:none;fill-rule:nonzero;fill:rgb(38.039216%,29.019609%,43.529412%);fill-opacity:1;" d="M 10 49 C 10 49.554688 10.449219 50 11 50 L 53 50 C 53.550781 50 54 49.554688 54 49 C 54 48.445312 53.550781 48 53 48 L 11 48 C 10.449219 48 10 48.445312 10 49 Z M 10 49 "/>
<path style=" stroke:none;fill-rule:nonzero;fill:rgb(81.176472%,69.803923%,43.137255%);fill-opacity:1;" d="M 17 41 L 13 41 C 12.449219 41 12 40.550781 12 40 L 12 33 C 12 32.449219 12.449219 32 13 32 L 17 32 C 17.550781 32 18 32.449219 18 33 L 18 40 C 18 40.550781 17.550781 41 17 41 Z M 17 41 "/>
<path style=" stroke:none;fill-rule:nonzero;fill:rgb(38.039216%,29.019609%,43.529412%);fill-opacity:1;" d="M 17 42 L 13 42 C 11.898438 42 11 41.101562 11 40 L 11 33 C 11 31.898438 11.898438 31 13 31 L 17 31 C 18.101562 31 19 31.898438 19 33 L 19 40 C 19 41.101562 18.101562 42 17 42 Z M 13 33 L 13 40 L 17.003906 40 L 17 33 Z M 13 33 "/>
<path style=" stroke:none;fill-rule:nonzero;fill:rgb(81.176472%,69.803923%,43.137255%);fill-opacity:1;" d="M 51 41 L 47 41 C 46.449219 41 46 40.550781 46 40 L 46 33 C 46 32.449219 46.449219 32 47 32 L 51 32 C 51.550781 32 52 32.449219 52 33 L 52 40 C 52 40.550781 51.550781 41 51 41 Z M 51 41 "/>
<path style=" stroke:none;fill-rule:nonzero;fill:rgb(38.039216%,29.019609%,43.529412%);fill-opacity:1;" d="M 51 42 L 47 42 C 45.898438 42 45 41.101562 45 40 L 45 33 C 45 31.898438 45.898438 31 47 31 L 51 31 C 52.101562 31 53 31.898438 53 33 L 53 40 C 53 41.101562 52.101562 42 51 42 Z M 47 33 L 47 40 L 51.003906 40 L 51 33 Z M 47 33 "/>
<path style=" stroke:none;fill-rule:nonzero;fill:rgb(38.039216%,29.019609%,43.529412%);fill-opacity:1;" d="M 44 10 L 43.535156 10 L 40.425781 5.335938 C 39.867188 4.5 38.933594 4 37.929688 4 L 26.070312 4 C 25.066406 4 24.128906 4.5 23.574219 5.335938 L 20.464844 10 L 20 10 L 20 12 L 44 12 Z M 22.867188 10 L 25.238281 6.445312 C 25.425781 6.164062 25.734375 6 26.070312 6 L 37.929688 6 C 38.265625 6 38.574219 6.164062 38.761719 6.445312 L 41.132812 10 Z M 22.867188 10 "/>
</g>
</svg>
