<svg xmlns="http://www.w3.org/2000/svg"  viewBox="0 0 64 64" width="64px" height="64px"><path fill="#faefde" d="M17.32,5h28.75c1.657,0,3,1.343,3,3v48c0,1.657-1.343,3-3,3h-38c-1.657,0-3-1.343-3-3V17.21 c0.014-0.803,0.349-1.566,0.93-2.12l9.2-9.24C15.767,5.298,16.529,4.993,17.32,5z"/><path fill="#fff7f0" d="M5.07 59.03L4.93 49.57 48.41 6.09 49.07 29.03 19.07 59.03zM4.93 39.18L39.14 4.97 44.89 5.22 5.07 45.03zM4.93 33.18L33.07 5.03 36.07 5.03 4.93 36.18z"/><path fill="#fff" d="M39.58 13.03L40.81 15.29 43.08 16.53 40.81 17.77 39.58 20.03 38.34 17.77 36.07 16.53 38.34 15.29zM24.49 11.03L25.35 12.6 26.91 13.45 25.35 14.3 24.49 15.87 23.64 14.3 22.07 13.45 23.64 12.6zM10.72 42.03L11.3 43.1 12.37 43.68 11.3 44.26 10.72 45.33 10.14 44.26 9.07 43.68 10.14 43.1z"/><path fill="#bbdef9" d="M17.07 5.03L17.07 17.03 5.07 17.03z"/><path fill="#85cbf8" d="M15.07 23.03H59.07V45.03H15.07z"/><path fill="#8d6c9f" d="M9 52c-.552 0-1 .448-1 1v2c0 .552.448 1 1 1s1-.448 1-1v-2C10 52.448 9.552 52 9 52zM14 52c-.552 0-1 .448-1 1v2c0 .552.448 1 1 1s1-.448 1-1v-2C15 52.448 14.552 52 14 52zM19 56c.552 0 1-.448 1-1v-2c0-.552-.448-1-1-1s-1 .448-1 1v2C18 55.552 18.448 56 19 56zM24 56c.552 0 1-.448 1-1v-2c0-.552-.448-1-1-1s-1 .448-1 1v2C23 55.552 23.448 56 24 56zM29 56c.552 0 1-.448 1-1v-2c0-.552-.448-1-1-1s-1 .448-1 1v2C28 55.552 28.448 56 29 56zM34 56c.552 0 1-.448 1-1v-2c0-.552-.448-1-1-1s-1 .448-1 1v2C33 55.552 33.448 56 34 56zM39 56c.552 0 1-.448 1-1v-2c0-.552-.448-1-1-1s-1 .448-1 1v2C38 55.552 38.448 56 39 56zM44 56c.552 0 1-.448 1-1v-2c0-.552-.448-1-1-1s-1 .448-1 1v2C43 55.552 43.448 56 44 56z"/><path fill="#8d6c9f" d="M58,22h-8V7c0-1.657-1.343-3-3-3H17.66c-1.327-0.002-2.6,0.523-3.54,1.46l-8.66,8.66 C4.523,15.06,3.998,16.333,4,17.66V57c0,1.657,1.343,3,3,3h40c1.657,0,3-1.343,3-3V46h8c1.105,0,2-0.895,2-2V24 C60,22.895,59.105,22,58,22z M15.54,6.88C15.68,6.738,15.834,6.611,16,6.5V15c0,0.552-0.448,1-1,1H6.5 c0.11-0.166,0.238-0.32,0.38-0.46L15.54,6.88z M48,57c0,0.552-0.448,1-1,1H7c-0.552,0-1-0.448-1-1V18h9c1.657,0,3-1.343,3-3V6h29 c0.552,0,1,0.448,1,1v15H16c-1.105,0-2,0.895-2,2v20c0,1.105,0.895,2,2,2h32V57z M58,44H16V24h42V44z"/><path fill="#fff" d="M50 38h-4v-9c0-.552-.448-1-1-1s-1 .448-1 1v10c0 .552.448 1 1 1h5c.552 0 1-.448 1-1S50.552 38 50 38zM31.51 28.14c-.472-.283-1.085-.131-1.37.34L28 32.06l-2.14-3.57c-.342-.434-.971-.508-1.404-.167-.351.277-.476.753-.306 1.167L26.83 34l-2.69 4.49c-.21.511.033 1.095.543 1.306.413.17.89.046 1.167-.306L28 35.94l2.14 3.57c.21.511.795.754 1.306.543.511-.21.754-.795.543-1.306-.035-.085-.082-.165-.139-.238L29.17 34l2.69-4.49C32.142 29.035 31.985 28.422 31.51 28.14zM35 40c.553 0 1-.448 1-1v-5.764l1.105 2.211c.34.678 1.449.678 1.789 0L40 33.236V39c0 .552.447 1 1 1s1-.448 1-1V29c0-.464-.319-.867-.771-.973-.448-.106-.917.111-1.124.526L38 32.764l-2.105-4.211c-.207-.415-.676-.631-1.124-.526C34.319 28.133 34 28.536 34 29v10C34 39.552 34.447 40 35 40z"/></svg>